%TF.GenerationSoftware,KiCad,Pcbnew,10.0.6*%
%TF.CreationDate,2026-09-08T15:27:36+03:00*%
%TF.ProjectId,STM32_Breakout,53544d33-325f-4427-9265-616b6f75742e,rev?*%
%TF.SameCoordinates,Original*%
%TF.FileFunction,Paste,Top*%
%TF.FilePolarity,Positive*%
%FSLAX46Y46*%
G04 Gerber Fmt 4.6, Leading zero omitted, Abs format (unit mm)*
G04 Created by KiCad (PCBNEW 10.0.6) date 2026-09-08 15:27:36*
%MOMM*%
%LPD*%
G01*
G04 APERTURE LIST*
G04 Aperture macros list*
%AMRoundRect*
0 Rectangle with rounded corners*
0 $1 Rounding radius*
0 $2 $3 $4 $5 $6 $7 $8 $9 X,Y pos of 4 corners*
0 Add a 4 corners polygon primitive as box body*
4,1,4,$2,$3,$4,$5,$6,$7,$8,$9,$2,$3,0*
0 Add four circle primitives for the rounded corners*
1,1,$1+$1,$2,$3*
1,1,$1+$1,$4,$5*
1,1,$1+$1,$6,$7*
1,1,$1+$1,$8,$9*
0 Add four rect primitives between the rounded corners*
20,1,$1+$1,$2,$3,$4,$5,0*
20,1,$1+$1,$4,$5,$6,$7,0*
20,1,$1+$1,$6,$7,$8,$9,0*
20,1,$1+$1,$8,$9,$2,$3,0*%
G04 Aperture macros list end*
%ADD10RoundRect,0.250000X-0.250000X-0.475000X0.250000X-0.475000X0.250000X0.475000X-0.250000X0.475000X0*%
%ADD11RoundRect,0.250000X0.250000X0.475000X-0.250000X0.475000X-0.250000X-0.475000X0.250000X-0.475000X0*%
%ADD12RoundRect,0.150000X-0.575000X0.150000X-0.575000X-0.150000X0.575000X-0.150000X0.575000X0.150000X0*%
%ADD13RoundRect,0.075000X-0.650000X0.075000X-0.650000X-0.075000X0.650000X-0.075000X0.650000X0.075000X0*%
%ADD14RoundRect,0.250000X-0.262500X-0.450000X0.262500X-0.450000X0.262500X0.450000X-0.262500X0.450000X0*%
%ADD15RoundRect,0.250000X-0.750000X2.000000X-0.750000X-2.000000X0.750000X-2.000000X0.750000X2.000000X0*%
%ADD16RoundRect,0.218750X-0.218750X-0.381250X0.218750X-0.381250X0.218750X0.381250X-0.218750X0.381250X0*%
%ADD17RoundRect,0.250000X-0.475000X0.250000X-0.475000X-0.250000X0.475000X-0.250000X0.475000X0.250000X0*%
%ADD18RoundRect,0.250000X0.475000X-0.250000X0.475000X0.250000X-0.475000X0.250000X-0.475000X-0.250000X0*%
%ADD19RoundRect,0.375000X-0.625000X-0.375000X0.625000X-0.375000X0.625000X0.375000X-0.625000X0.375000X0*%
%ADD20RoundRect,0.500000X-0.500000X-1.400000X0.500000X-1.400000X0.500000X1.400000X-0.500000X1.400000X0*%
%ADD21RoundRect,0.075000X-0.725000X-0.075000X0.725000X-0.075000X0.725000X0.075000X-0.725000X0.075000X0*%
%ADD22RoundRect,0.075000X-0.075000X-0.725000X0.075000X-0.725000X0.075000X0.725000X-0.075000X0.725000X0*%
G04 APERTURE END LIST*
D10*
%TO.C,C9*%
X70150000Y-41250000D03*
X68250000Y-41250000D03*
%TD*%
D11*
%TO.C,C4*%
X66250000Y-44750000D03*
X64350000Y-44750000D03*
%TD*%
D12*
%TO.C,J2*%
X52345000Y-29430000D03*
X52345000Y-30230000D03*
D13*
X52345000Y-31430000D03*
X52345000Y-32430000D03*
X52345000Y-32930000D03*
X52345000Y-33930000D03*
D12*
X52345000Y-35130000D03*
X52345000Y-35930000D03*
X52345000Y-35930000D03*
X52345000Y-35130000D03*
D13*
X52345000Y-34430000D03*
X52345000Y-33430000D03*
X52345000Y-31930000D03*
X52345000Y-30930000D03*
D12*
X52345000Y-30230000D03*
X52345000Y-29430000D03*
%TD*%
D10*
%TO.C,C3*%
X66700000Y-57750000D03*
X64800000Y-57750000D03*
%TD*%
D14*
%TO.C,R4*%
X59325000Y-34500000D03*
X57500000Y-34500000D03*
%TD*%
D10*
%TO.C,C8*%
X89500000Y-47250000D03*
X91400000Y-47250000D03*
%TD*%
D14*
%TO.C,R1*%
X51412500Y-51000000D03*
X49587500Y-51000000D03*
%TD*%
D15*
%TO.C,Y1*%
X60750000Y-50500000D03*
X60750000Y-59000000D03*
%TD*%
D14*
%TO.C,R3*%
X57500000Y-29500000D03*
X59325000Y-29500000D03*
%TD*%
%TO.C,R2*%
X72175000Y-41250000D03*
X74000000Y-41250000D03*
%TD*%
D16*
%TO.C,FB1*%
X91875000Y-53250000D03*
X94000000Y-53250000D03*
%TD*%
D10*
%TO.C,C13*%
X64000000Y-30750000D03*
X65900000Y-30750000D03*
%TD*%
D11*
%TO.C,C12*%
X65900000Y-33250000D03*
X64000000Y-33250000D03*
%TD*%
D17*
%TO.C,C11*%
X89500000Y-56850000D03*
X89500000Y-58750000D03*
%TD*%
D18*
%TO.C,C10*%
X94000000Y-58750000D03*
X94000000Y-56850000D03*
%TD*%
D10*
%TO.C,C7*%
X81250000Y-64250000D03*
X83150000Y-64250000D03*
%TD*%
D11*
%TO.C,C6*%
X75400000Y-64250000D03*
X73500000Y-64250000D03*
%TD*%
D10*
%TO.C,C5*%
X67250000Y-64250000D03*
X69150000Y-64250000D03*
%TD*%
%TO.C,C2*%
X64800000Y-50250000D03*
X66700000Y-50250000D03*
%TD*%
D19*
%TO.C,U2*%
X70300000Y-27950000D03*
X70300000Y-30250000D03*
D20*
X76600000Y-30250000D03*
D19*
X70300000Y-32550000D03*
%TD*%
D10*
%TO.C,C1*%
X49500000Y-46000000D03*
X51400000Y-46000000D03*
%TD*%
D21*
%TO.C,U1*%
X69325000Y-45825000D03*
X69325000Y-46325000D03*
X69325000Y-46825000D03*
X69325000Y-47325000D03*
X69325000Y-47825000D03*
X69325000Y-48325000D03*
X69325000Y-48825000D03*
X69325000Y-49325000D03*
X69325000Y-49825000D03*
X69325000Y-50325000D03*
X69325000Y-50825000D03*
X69325000Y-51325000D03*
X69325000Y-51825000D03*
X69325000Y-52325000D03*
X69325000Y-52825000D03*
X69325000Y-53325000D03*
X69325000Y-53825000D03*
X69325000Y-54325000D03*
X69325000Y-54825000D03*
X69325000Y-55325000D03*
X69325000Y-55825000D03*
X69325000Y-56325000D03*
X69325000Y-56825000D03*
X69325000Y-57325000D03*
X69325000Y-57825000D03*
D22*
X71000000Y-59500000D03*
X71500000Y-59500000D03*
X72000000Y-59500000D03*
X72500000Y-59500000D03*
X73000000Y-59500000D03*
X73500000Y-59500000D03*
X74000000Y-59500000D03*
X74500000Y-59500000D03*
X75000000Y-59500000D03*
X75500000Y-59500000D03*
X76000000Y-59500000D03*
X76500000Y-59500000D03*
X77000000Y-59500000D03*
X77500000Y-59500000D03*
X78000000Y-59500000D03*
X78500000Y-59500000D03*
X79000000Y-59500000D03*
X79500000Y-59500000D03*
X80000000Y-59500000D03*
X80500000Y-59500000D03*
X81000000Y-59500000D03*
X81500000Y-59500000D03*
X82000000Y-59500000D03*
X82500000Y-59500000D03*
X83000000Y-59500000D03*
D21*
X84675000Y-57825000D03*
X84675000Y-57325000D03*
X84675000Y-56825000D03*
X84675000Y-56325000D03*
X84675000Y-55825000D03*
X84675000Y-55325000D03*
X84675000Y-54825000D03*
X84675000Y-54325000D03*
X84675000Y-53825000D03*
X84675000Y-53325000D03*
X84675000Y-52825000D03*
X84675000Y-52325000D03*
X84675000Y-51825000D03*
X84675000Y-51325000D03*
X84675000Y-50825000D03*
X84675000Y-50325000D03*
X84675000Y-49825000D03*
X84675000Y-49325000D03*
X84675000Y-48825000D03*
X84675000Y-48325000D03*
X84675000Y-47825000D03*
X84675000Y-47325000D03*
X84675000Y-46825000D03*
X84675000Y-46325000D03*
X84675000Y-45825000D03*
D22*
X83000000Y-44150000D03*
X82500000Y-44150000D03*
X82000000Y-44150000D03*
X81500000Y-44150000D03*
X81000000Y-44150000D03*
X80500000Y-44150000D03*
X80000000Y-44150000D03*
X79500000Y-44150000D03*
X79000000Y-44150000D03*
X78500000Y-44150000D03*
X78000000Y-44150000D03*
X77500000Y-44150000D03*
X77000000Y-44150000D03*
X76500000Y-44150000D03*
X76000000Y-44150000D03*
X75500000Y-44150000D03*
X75000000Y-44150000D03*
X74500000Y-44150000D03*
X74000000Y-44150000D03*
X73500000Y-44150000D03*
X73000000Y-44150000D03*
X72500000Y-44150000D03*
X72000000Y-44150000D03*
X71500000Y-44150000D03*
X71000000Y-44150000D03*
%TD*%
M02*
