%TF.GenerationSoftware,KiCad,Pcbnew,10.0.6*%
%TF.CreationDate,2026-09-08T15:27:36+03:00*%
%TF.ProjectId,STM32_Breakout,53544d33-325f-4427-9265-616b6f75742e,rev?*%
%TF.SameCoordinates,Original*%
%TF.FileFunction,Copper,L3,Inr*%
%TF.FilePolarity,Positive*%
%FSLAX46Y46*%
G04 Gerber Fmt 4.6, Leading zero omitted, Abs format (unit mm)*
G04 Created by KiCad (PCBNEW 10.0.6) date 2026-09-08 15:27:36*
%MOMM*%
%LPD*%
G01*
G04 APERTURE LIST*
%TA.AperFunction,ComponentPad*%
%ADD10O,2.100000X1.000000*%
%TD*%
%TA.AperFunction,ComponentPad*%
%ADD11O,1.600000X1.000000*%
%TD*%
%TA.AperFunction,ComponentPad*%
%ADD12R,1.700000X1.700000*%
%TD*%
%TA.AperFunction,ComponentPad*%
%ADD13C,1.700000*%
%TD*%
%TA.AperFunction,ViaPad*%
%ADD14C,0.600000*%
%TD*%
G04 APERTURE END LIST*
D10*
%TO.N,GND*%
%TO.C,J2*%
X51430000Y-28360000D03*
D11*
X47250000Y-28360000D03*
D10*
X51430000Y-37000000D03*
D11*
X47250000Y-37000000D03*
%TD*%
D12*
%TO.N,+3.3V*%
%TO.C,J1*%
X93500000Y-29130000D03*
D13*
%TO.N,/SWDIO*%
X93500000Y-31670000D03*
%TO.N,/SWCLK*%
X93500000Y-34210000D03*
%TO.N,GND*%
X93500000Y-36750000D03*
%TD*%
D14*
%TO.N,+5V*%
X59750000Y-36500000D03*
X55250000Y-32000000D03*
%TO.N,GND*%
X52345000Y-29430000D03*
X52345000Y-35930000D03*
%TO.N,+3.3V*%
X71000000Y-47750000D03*
X71500000Y-50000000D03*
X68500000Y-30250000D03*
X67250000Y-30750000D03*
%TO.N,GND*%
X51500000Y-26750000D03*
X47250000Y-26750000D03*
X51500000Y-38750000D03*
X47250000Y-38750000D03*
%TO.N,+3.3V*%
X71000000Y-42750000D03*
X70504449Y-54753569D03*
X72000000Y-61000000D03*
X83000000Y-60750000D03*
X84750000Y-44750000D03*
X91000000Y-29000000D03*
%TO.N,GND*%
X92500000Y-58750000D03*
X87750000Y-58750000D03*
X89500000Y-48750000D03*
%TO.N,+3.3V*%
X91500000Y-48750000D03*
%TO.N,GND*%
X91250000Y-36750000D03*
X60500000Y-34500000D03*
X60500000Y-29500000D03*
X62750000Y-33250000D03*
X62750000Y-30750000D03*
X68750000Y-28000000D03*
X72000000Y-39750000D03*
%TO.N,+3.3V*%
X48500000Y-51000000D03*
%TO.N,GND*%
X48250000Y-46000000D03*
X66750000Y-59000000D03*
X66750000Y-48750000D03*
%TO.N,Net-(U1-NRST)*%
X71750000Y-52250000D03*
%TO.N,GND*%
X68250000Y-39750000D03*
%TO.N,+3.3V*%
X67500000Y-44750000D03*
%TO.N,Net-(U1-NRST)*%
X54000000Y-45750000D03*
%TO.N,Net-(U1-VDDA)*%
X71250000Y-56500000D03*
X86750000Y-56750000D03*
%TO.N,+3.3V*%
X70250000Y-39750000D03*
X70250000Y-64250000D03*
X72250000Y-64250000D03*
X84250000Y-64250000D03*
%TO.N,GND*%
X80000000Y-64250000D03*
X76500000Y-64250000D03*
X66000000Y-64250000D03*
X63000000Y-44750000D03*
%TO.N,+3.3V*%
X78500000Y-30250000D03*
%TD*%
%TA.AperFunction,Conductor*%
%TO.N,+3.3V*%
G36*
X97942539Y-24769685D02*
G01*
X97988294Y-24822489D01*
X97999500Y-24874000D01*
X97999500Y-67375500D01*
X97979815Y-67442539D01*
X97927011Y-67488294D01*
X97875500Y-67499500D01*
X44122553Y-67499500D01*
X44055514Y-67479815D01*
X44009759Y-67427011D01*
X43998561Y-67376950D01*
X43961066Y-64171153D01*
X65199500Y-64171153D01*
X65199500Y-64328846D01*
X65230261Y-64483489D01*
X65230264Y-64483501D01*
X65290602Y-64629172D01*
X65290609Y-64629185D01*
X65378210Y-64760288D01*
X65378213Y-64760292D01*
X65489707Y-64871786D01*
X65489711Y-64871789D01*
X65620814Y-64959390D01*
X65620827Y-64959397D01*
X65766498Y-65019735D01*
X65766503Y-65019737D01*
X65921153Y-65050499D01*
X65921156Y-65050500D01*
X65921158Y-65050500D01*
X66078844Y-65050500D01*
X66078845Y-65050499D01*
X66233497Y-65019737D01*
X66379179Y-64959394D01*
X66510289Y-64871789D01*
X66621789Y-64760289D01*
X66709394Y-64629179D01*
X66769737Y-64483497D01*
X66800500Y-64328842D01*
X66800500Y-64171158D01*
X66800500Y-64171155D01*
X66800499Y-64171153D01*
X75699500Y-64171153D01*
X75699500Y-64328846D01*
X75730261Y-64483489D01*
X75730264Y-64483501D01*
X75790602Y-64629172D01*
X75790609Y-64629185D01*
X75878210Y-64760288D01*
X75878213Y-64760292D01*
X75989707Y-64871786D01*
X75989711Y-64871789D01*
X76120814Y-64959390D01*
X76120827Y-64959397D01*
X76266498Y-65019735D01*
X76266503Y-65019737D01*
X76421153Y-65050499D01*
X76421156Y-65050500D01*
X76421158Y-65050500D01*
X76578844Y-65050500D01*
X76578845Y-65050499D01*
X76733497Y-65019737D01*
X76879179Y-64959394D01*
X77010289Y-64871789D01*
X77121789Y-64760289D01*
X77209394Y-64629179D01*
X77269737Y-64483497D01*
X77300500Y-64328842D01*
X77300500Y-64171158D01*
X77300500Y-64171155D01*
X77300499Y-64171153D01*
X79199500Y-64171153D01*
X79199500Y-64328846D01*
X79230261Y-64483489D01*
X79230264Y-64483501D01*
X79290602Y-64629172D01*
X79290609Y-64629185D01*
X79378210Y-64760288D01*
X79378213Y-64760292D01*
X79489707Y-64871786D01*
X79489711Y-64871789D01*
X79620814Y-64959390D01*
X79620827Y-64959397D01*
X79766498Y-65019735D01*
X79766503Y-65019737D01*
X79921153Y-65050499D01*
X79921156Y-65050500D01*
X79921158Y-65050500D01*
X80078844Y-65050500D01*
X80078845Y-65050499D01*
X80233497Y-65019737D01*
X80379179Y-64959394D01*
X80510289Y-64871789D01*
X80621789Y-64760289D01*
X80709394Y-64629179D01*
X80769737Y-64483497D01*
X80800500Y-64328842D01*
X80800500Y-64171158D01*
X80800500Y-64171155D01*
X80800499Y-64171153D01*
X80769738Y-64016510D01*
X80769737Y-64016503D01*
X80769735Y-64016498D01*
X80709397Y-63870827D01*
X80709390Y-63870814D01*
X80621789Y-63739711D01*
X80621786Y-63739707D01*
X80510292Y-63628213D01*
X80510288Y-63628210D01*
X80379185Y-63540609D01*
X80379172Y-63540602D01*
X80233501Y-63480264D01*
X80233489Y-63480261D01*
X80078845Y-63449500D01*
X80078842Y-63449500D01*
X79921158Y-63449500D01*
X79921155Y-63449500D01*
X79766510Y-63480261D01*
X79766498Y-63480264D01*
X79620827Y-63540602D01*
X79620814Y-63540609D01*
X79489711Y-63628210D01*
X79489707Y-63628213D01*
X79378213Y-63739707D01*
X79378210Y-63739711D01*
X79290609Y-63870814D01*
X79290602Y-63870827D01*
X79230264Y-64016498D01*
X79230261Y-64016510D01*
X79199500Y-64171153D01*
X77300499Y-64171153D01*
X77269738Y-64016510D01*
X77269737Y-64016503D01*
X77269735Y-64016498D01*
X77209397Y-63870827D01*
X77209390Y-63870814D01*
X77121789Y-63739711D01*
X77121786Y-63739707D01*
X77010292Y-63628213D01*
X77010288Y-63628210D01*
X76879185Y-63540609D01*
X76879172Y-63540602D01*
X76733501Y-63480264D01*
X76733489Y-63480261D01*
X76578845Y-63449500D01*
X76578842Y-63449500D01*
X76421158Y-63449500D01*
X76421155Y-63449500D01*
X76266510Y-63480261D01*
X76266498Y-63480264D01*
X76120827Y-63540602D01*
X76120814Y-63540609D01*
X75989711Y-63628210D01*
X75989707Y-63628213D01*
X75878213Y-63739707D01*
X75878210Y-63739711D01*
X75790609Y-63870814D01*
X75790602Y-63870827D01*
X75730264Y-64016498D01*
X75730261Y-64016510D01*
X75699500Y-64171153D01*
X66800499Y-64171153D01*
X66769738Y-64016510D01*
X66769737Y-64016503D01*
X66769735Y-64016498D01*
X66709397Y-63870827D01*
X66709390Y-63870814D01*
X66621789Y-63739711D01*
X66621786Y-63739707D01*
X66510292Y-63628213D01*
X66510288Y-63628210D01*
X66379185Y-63540609D01*
X66379172Y-63540602D01*
X66233501Y-63480264D01*
X66233489Y-63480261D01*
X66078845Y-63449500D01*
X66078842Y-63449500D01*
X65921158Y-63449500D01*
X65921155Y-63449500D01*
X65766510Y-63480261D01*
X65766498Y-63480264D01*
X65620827Y-63540602D01*
X65620814Y-63540609D01*
X65489711Y-63628210D01*
X65489707Y-63628213D01*
X65378213Y-63739707D01*
X65378210Y-63739711D01*
X65290609Y-63870814D01*
X65290602Y-63870827D01*
X65230264Y-64016498D01*
X65230261Y-64016510D01*
X65199500Y-64171153D01*
X43961066Y-64171153D01*
X43961012Y-64166516D01*
X43899663Y-58921153D01*
X65949500Y-58921153D01*
X65949500Y-59078846D01*
X65980261Y-59233489D01*
X65980264Y-59233501D01*
X66040602Y-59379172D01*
X66040609Y-59379185D01*
X66128210Y-59510288D01*
X66128213Y-59510292D01*
X66239707Y-59621786D01*
X66239711Y-59621789D01*
X66370814Y-59709390D01*
X66370827Y-59709397D01*
X66516498Y-59769735D01*
X66516503Y-59769737D01*
X66671153Y-59800499D01*
X66671156Y-59800500D01*
X66671158Y-59800500D01*
X66828844Y-59800500D01*
X66828845Y-59800499D01*
X66983497Y-59769737D01*
X67129179Y-59709394D01*
X67260289Y-59621789D01*
X67371789Y-59510289D01*
X67459394Y-59379179D01*
X67519737Y-59233497D01*
X67550500Y-59078842D01*
X67550500Y-58921158D01*
X67550500Y-58921155D01*
X67550499Y-58921153D01*
X67519738Y-58766510D01*
X67519737Y-58766503D01*
X67480242Y-58671153D01*
X86949500Y-58671153D01*
X86949500Y-58828846D01*
X86980261Y-58983489D01*
X86980264Y-58983501D01*
X87040602Y-59129172D01*
X87040609Y-59129185D01*
X87128210Y-59260288D01*
X87128213Y-59260292D01*
X87239707Y-59371786D01*
X87239711Y-59371789D01*
X87370814Y-59459390D01*
X87370827Y-59459397D01*
X87516498Y-59519735D01*
X87516503Y-59519737D01*
X87671153Y-59550499D01*
X87671156Y-59550500D01*
X87671158Y-59550500D01*
X87828844Y-59550500D01*
X87828845Y-59550499D01*
X87983497Y-59519737D01*
X88129179Y-59459394D01*
X88260289Y-59371789D01*
X88371789Y-59260289D01*
X88459394Y-59129179D01*
X88519737Y-58983497D01*
X88550500Y-58828842D01*
X88550500Y-58671158D01*
X88550500Y-58671155D01*
X88550499Y-58671153D01*
X91699500Y-58671153D01*
X91699500Y-58828846D01*
X91730261Y-58983489D01*
X91730264Y-58983501D01*
X91790602Y-59129172D01*
X91790609Y-59129185D01*
X91878210Y-59260288D01*
X91878213Y-59260292D01*
X91989707Y-59371786D01*
X91989711Y-59371789D01*
X92120814Y-59459390D01*
X92120827Y-59459397D01*
X92266498Y-59519735D01*
X92266503Y-59519737D01*
X92421153Y-59550499D01*
X92421156Y-59550500D01*
X92421158Y-59550500D01*
X92578844Y-59550500D01*
X92578845Y-59550499D01*
X92733497Y-59519737D01*
X92879179Y-59459394D01*
X93010289Y-59371789D01*
X93121789Y-59260289D01*
X93209394Y-59129179D01*
X93269737Y-58983497D01*
X93300500Y-58828842D01*
X93300500Y-58671158D01*
X93300500Y-58671155D01*
X93300499Y-58671153D01*
X93269738Y-58516510D01*
X93269737Y-58516503D01*
X93269735Y-58516498D01*
X93209397Y-58370827D01*
X93209390Y-58370814D01*
X93121789Y-58239711D01*
X93121786Y-58239707D01*
X93010292Y-58128213D01*
X93010288Y-58128210D01*
X92879185Y-58040609D01*
X92879172Y-58040602D01*
X92733501Y-57980264D01*
X92733489Y-57980261D01*
X92578845Y-57949500D01*
X92578842Y-57949500D01*
X92421158Y-57949500D01*
X92421155Y-57949500D01*
X92266510Y-57980261D01*
X92266498Y-57980264D01*
X92120827Y-58040602D01*
X92120814Y-58040609D01*
X91989711Y-58128210D01*
X91989707Y-58128213D01*
X91878213Y-58239707D01*
X91878210Y-58239711D01*
X91790609Y-58370814D01*
X91790602Y-58370827D01*
X91730264Y-58516498D01*
X91730261Y-58516510D01*
X91699500Y-58671153D01*
X88550499Y-58671153D01*
X88519738Y-58516510D01*
X88519737Y-58516503D01*
X88519735Y-58516498D01*
X88459397Y-58370827D01*
X88459390Y-58370814D01*
X88371789Y-58239711D01*
X88371786Y-58239707D01*
X88260292Y-58128213D01*
X88260288Y-58128210D01*
X88129185Y-58040609D01*
X88129172Y-58040602D01*
X87983501Y-57980264D01*
X87983489Y-57980261D01*
X87828845Y-57949500D01*
X87828842Y-57949500D01*
X87671158Y-57949500D01*
X87671155Y-57949500D01*
X87516510Y-57980261D01*
X87516498Y-57980264D01*
X87370827Y-58040602D01*
X87370814Y-58040609D01*
X87239711Y-58128210D01*
X87239707Y-58128213D01*
X87128213Y-58239707D01*
X87128210Y-58239711D01*
X87040609Y-58370814D01*
X87040602Y-58370827D01*
X86980264Y-58516498D01*
X86980261Y-58516510D01*
X86949500Y-58671153D01*
X67480242Y-58671153D01*
X67479933Y-58670408D01*
X67459397Y-58620827D01*
X67459390Y-58620814D01*
X67371789Y-58489711D01*
X67371786Y-58489707D01*
X67260292Y-58378213D01*
X67260288Y-58378210D01*
X67129185Y-58290609D01*
X67129172Y-58290602D01*
X66983501Y-58230264D01*
X66983489Y-58230261D01*
X66828845Y-58199500D01*
X66828842Y-58199500D01*
X66671158Y-58199500D01*
X66671155Y-58199500D01*
X66516510Y-58230261D01*
X66516498Y-58230264D01*
X66370827Y-58290602D01*
X66370814Y-58290609D01*
X66239711Y-58378210D01*
X66239707Y-58378213D01*
X66128213Y-58489707D01*
X66128210Y-58489711D01*
X66040609Y-58620814D01*
X66040602Y-58620827D01*
X65980264Y-58766498D01*
X65980261Y-58766510D01*
X65949500Y-58921153D01*
X43899663Y-58921153D01*
X43899609Y-58916516D01*
X43870423Y-56421153D01*
X70449500Y-56421153D01*
X70449500Y-56578846D01*
X70480261Y-56733489D01*
X70480264Y-56733501D01*
X70540602Y-56879172D01*
X70540609Y-56879185D01*
X70628210Y-57010288D01*
X70628213Y-57010292D01*
X70739707Y-57121786D01*
X70739711Y-57121789D01*
X70870814Y-57209390D01*
X70870827Y-57209397D01*
X71016498Y-57269735D01*
X71016503Y-57269737D01*
X71171153Y-57300499D01*
X71171156Y-57300500D01*
X71171158Y-57300500D01*
X71328844Y-57300500D01*
X71328845Y-57300499D01*
X71483497Y-57269737D01*
X71629179Y-57209394D01*
X71760289Y-57121789D01*
X71871789Y-57010289D01*
X71959394Y-56879179D01*
X72019737Y-56733497D01*
X72032138Y-56671153D01*
X85949500Y-56671153D01*
X85949500Y-56828846D01*
X85980261Y-56983489D01*
X85980264Y-56983501D01*
X86040602Y-57129172D01*
X86040609Y-57129185D01*
X86128210Y-57260288D01*
X86128213Y-57260292D01*
X86239707Y-57371786D01*
X86239711Y-57371789D01*
X86370814Y-57459390D01*
X86370827Y-57459397D01*
X86516498Y-57519735D01*
X86516503Y-57519737D01*
X86671153Y-57550499D01*
X86671156Y-57550500D01*
X86671158Y-57550500D01*
X86828844Y-57550500D01*
X86828845Y-57550499D01*
X86983497Y-57519737D01*
X87129179Y-57459394D01*
X87260289Y-57371789D01*
X87371789Y-57260289D01*
X87459394Y-57129179D01*
X87519737Y-56983497D01*
X87550500Y-56828842D01*
X87550500Y-56671158D01*
X87550500Y-56671155D01*
X87550499Y-56671153D01*
X87519738Y-56516510D01*
X87519737Y-56516503D01*
X87480242Y-56421153D01*
X87459397Y-56370827D01*
X87459390Y-56370814D01*
X87371789Y-56239711D01*
X87371786Y-56239707D01*
X87260292Y-56128213D01*
X87260288Y-56128210D01*
X87129185Y-56040609D01*
X87129172Y-56040602D01*
X86983501Y-55980264D01*
X86983489Y-55980261D01*
X86828845Y-55949500D01*
X86828842Y-55949500D01*
X86671158Y-55949500D01*
X86671155Y-55949500D01*
X86516510Y-55980261D01*
X86516498Y-55980264D01*
X86370827Y-56040602D01*
X86370814Y-56040609D01*
X86239711Y-56128210D01*
X86239707Y-56128213D01*
X86128213Y-56239707D01*
X86128210Y-56239711D01*
X86040609Y-56370814D01*
X86040602Y-56370827D01*
X85980264Y-56516498D01*
X85980261Y-56516510D01*
X85949500Y-56671153D01*
X72032138Y-56671153D01*
X72038161Y-56640874D01*
X72050500Y-56578844D01*
X72050500Y-56421155D01*
X72050499Y-56421153D01*
X72019738Y-56266510D01*
X72019737Y-56266503D01*
X72019735Y-56266498D01*
X71959397Y-56120827D01*
X71959390Y-56120814D01*
X71871789Y-55989711D01*
X71871786Y-55989707D01*
X71760292Y-55878213D01*
X71760288Y-55878210D01*
X71629185Y-55790609D01*
X71629172Y-55790602D01*
X71483501Y-55730264D01*
X71483489Y-55730261D01*
X71328845Y-55699500D01*
X71328842Y-55699500D01*
X71171158Y-55699500D01*
X71171155Y-55699500D01*
X71016510Y-55730261D01*
X71016498Y-55730264D01*
X70870827Y-55790602D01*
X70870814Y-55790609D01*
X70739711Y-55878210D01*
X70739707Y-55878213D01*
X70628213Y-55989707D01*
X70628210Y-55989711D01*
X70540609Y-56120814D01*
X70540602Y-56120827D01*
X70480264Y-56266498D01*
X70480261Y-56266510D01*
X70449500Y-56421153D01*
X43870423Y-56421153D01*
X43870369Y-56416516D01*
X43820716Y-52171153D01*
X70949500Y-52171153D01*
X70949500Y-52328846D01*
X70980261Y-52483489D01*
X70980264Y-52483501D01*
X71040602Y-52629172D01*
X71040609Y-52629185D01*
X71128210Y-52760288D01*
X71128213Y-52760292D01*
X71239707Y-52871786D01*
X71239711Y-52871789D01*
X71370814Y-52959390D01*
X71370827Y-52959397D01*
X71516498Y-53019735D01*
X71516503Y-53019737D01*
X71671153Y-53050499D01*
X71671156Y-53050500D01*
X71671158Y-53050500D01*
X71828844Y-53050500D01*
X71828845Y-53050499D01*
X71983497Y-53019737D01*
X72129179Y-52959394D01*
X72260289Y-52871789D01*
X72371789Y-52760289D01*
X72459394Y-52629179D01*
X72519737Y-52483497D01*
X72550500Y-52328842D01*
X72550500Y-52171158D01*
X72550500Y-52171155D01*
X72550499Y-52171153D01*
X72519738Y-52016510D01*
X72519737Y-52016503D01*
X72519735Y-52016498D01*
X72459397Y-51870827D01*
X72459390Y-51870814D01*
X72371789Y-51739711D01*
X72371786Y-51739707D01*
X72260292Y-51628213D01*
X72260288Y-51628210D01*
X72129185Y-51540609D01*
X72129172Y-51540602D01*
X71983501Y-51480264D01*
X71983489Y-51480261D01*
X71828845Y-51449500D01*
X71828842Y-51449500D01*
X71671158Y-51449500D01*
X71671155Y-51449500D01*
X71516510Y-51480261D01*
X71516498Y-51480264D01*
X71370827Y-51540602D01*
X71370814Y-51540609D01*
X71239711Y-51628210D01*
X71239707Y-51628213D01*
X71128213Y-51739707D01*
X71128210Y-51739711D01*
X71040609Y-51870814D01*
X71040602Y-51870827D01*
X70980264Y-52016498D01*
X70980261Y-52016510D01*
X70949500Y-52171153D01*
X43820716Y-52171153D01*
X43820662Y-52166516D01*
X43779780Y-48671153D01*
X65949500Y-48671153D01*
X65949500Y-48828846D01*
X65980261Y-48983489D01*
X65980264Y-48983501D01*
X66040602Y-49129172D01*
X66040609Y-49129185D01*
X66128210Y-49260288D01*
X66128213Y-49260292D01*
X66239707Y-49371786D01*
X66239711Y-49371789D01*
X66370814Y-49459390D01*
X66370827Y-49459397D01*
X66516498Y-49519735D01*
X66516503Y-49519737D01*
X66671153Y-49550499D01*
X66671156Y-49550500D01*
X66671158Y-49550500D01*
X66828844Y-49550500D01*
X66828845Y-49550499D01*
X66983497Y-49519737D01*
X67129179Y-49459394D01*
X67260289Y-49371789D01*
X67371789Y-49260289D01*
X67459394Y-49129179D01*
X67519737Y-48983497D01*
X67550500Y-48828842D01*
X67550500Y-48671158D01*
X67550500Y-48671155D01*
X67550499Y-48671153D01*
X88699500Y-48671153D01*
X88699500Y-48828846D01*
X88730261Y-48983489D01*
X88730264Y-48983501D01*
X88790602Y-49129172D01*
X88790609Y-49129185D01*
X88878210Y-49260288D01*
X88878213Y-49260292D01*
X88989707Y-49371786D01*
X88989711Y-49371789D01*
X89120814Y-49459390D01*
X89120827Y-49459397D01*
X89266498Y-49519735D01*
X89266503Y-49519737D01*
X89421153Y-49550499D01*
X89421156Y-49550500D01*
X89421158Y-49550500D01*
X89578844Y-49550500D01*
X89578845Y-49550499D01*
X89733497Y-49519737D01*
X89879179Y-49459394D01*
X90010289Y-49371789D01*
X90121789Y-49260289D01*
X90209394Y-49129179D01*
X90269737Y-48983497D01*
X90300500Y-48828842D01*
X90300500Y-48671158D01*
X90300500Y-48671155D01*
X90300499Y-48671153D01*
X90269738Y-48516510D01*
X90269737Y-48516503D01*
X90269735Y-48516498D01*
X90209397Y-48370827D01*
X90209390Y-48370814D01*
X90121789Y-48239711D01*
X90121786Y-48239707D01*
X90010292Y-48128213D01*
X90010288Y-48128210D01*
X89879185Y-48040609D01*
X89879172Y-48040602D01*
X89733501Y-47980264D01*
X89733489Y-47980261D01*
X89578845Y-47949500D01*
X89578842Y-47949500D01*
X89421158Y-47949500D01*
X89421155Y-47949500D01*
X89266510Y-47980261D01*
X89266498Y-47980264D01*
X89120827Y-48040602D01*
X89120814Y-48040609D01*
X88989711Y-48128210D01*
X88989707Y-48128213D01*
X88878213Y-48239707D01*
X88878210Y-48239711D01*
X88790609Y-48370814D01*
X88790602Y-48370827D01*
X88730264Y-48516498D01*
X88730261Y-48516510D01*
X88699500Y-48671153D01*
X67550499Y-48671153D01*
X67519738Y-48516510D01*
X67519737Y-48516503D01*
X67519735Y-48516498D01*
X67459397Y-48370827D01*
X67459390Y-48370814D01*
X67371789Y-48239711D01*
X67371786Y-48239707D01*
X67260292Y-48128213D01*
X67260288Y-48128210D01*
X67129185Y-48040609D01*
X67129172Y-48040602D01*
X66983501Y-47980264D01*
X66983489Y-47980261D01*
X66828845Y-47949500D01*
X66828842Y-47949500D01*
X66671158Y-47949500D01*
X66671155Y-47949500D01*
X66516510Y-47980261D01*
X66516498Y-47980264D01*
X66370827Y-48040602D01*
X66370814Y-48040609D01*
X66239711Y-48128210D01*
X66239707Y-48128213D01*
X66128213Y-48239707D01*
X66128210Y-48239711D01*
X66040609Y-48370814D01*
X66040602Y-48370827D01*
X65980264Y-48516498D01*
X65980261Y-48516510D01*
X65949500Y-48671153D01*
X43779780Y-48671153D01*
X43747616Y-45921153D01*
X47449500Y-45921153D01*
X47449500Y-46078846D01*
X47480261Y-46233489D01*
X47480264Y-46233501D01*
X47540602Y-46379172D01*
X47540609Y-46379185D01*
X47628210Y-46510288D01*
X47628213Y-46510292D01*
X47739707Y-46621786D01*
X47739711Y-46621789D01*
X47870814Y-46709390D01*
X47870827Y-46709397D01*
X48016498Y-46769735D01*
X48016503Y-46769737D01*
X48171153Y-46800499D01*
X48171156Y-46800500D01*
X48171158Y-46800500D01*
X48328844Y-46800500D01*
X48328845Y-46800499D01*
X48483497Y-46769737D01*
X48629179Y-46709394D01*
X48760289Y-46621789D01*
X48871789Y-46510289D01*
X48959394Y-46379179D01*
X49019737Y-46233497D01*
X49050500Y-46078842D01*
X49050500Y-45921158D01*
X49050500Y-45921155D01*
X49050499Y-45921153D01*
X49019738Y-45766510D01*
X49019737Y-45766503D01*
X48980242Y-45671153D01*
X53199500Y-45671153D01*
X53199500Y-45828846D01*
X53230261Y-45983489D01*
X53230264Y-45983501D01*
X53290602Y-46129172D01*
X53290609Y-46129185D01*
X53378210Y-46260288D01*
X53378213Y-46260292D01*
X53489707Y-46371786D01*
X53489711Y-46371789D01*
X53620814Y-46459390D01*
X53620827Y-46459397D01*
X53766498Y-46519735D01*
X53766503Y-46519737D01*
X53921153Y-46550499D01*
X53921156Y-46550500D01*
X53921158Y-46550500D01*
X54078844Y-46550500D01*
X54078845Y-46550499D01*
X54233497Y-46519737D01*
X54379179Y-46459394D01*
X54510289Y-46371789D01*
X54621789Y-46260289D01*
X54709394Y-46129179D01*
X54769737Y-45983497D01*
X54800500Y-45828842D01*
X54800500Y-45671158D01*
X54800500Y-45671155D01*
X54800499Y-45671153D01*
X54769738Y-45516510D01*
X54769737Y-45516503D01*
X54769735Y-45516498D01*
X54709397Y-45370827D01*
X54709390Y-45370814D01*
X54621789Y-45239711D01*
X54621786Y-45239707D01*
X54510292Y-45128213D01*
X54510288Y-45128210D01*
X54379185Y-45040609D01*
X54379172Y-45040602D01*
X54233501Y-44980264D01*
X54233489Y-44980261D01*
X54078845Y-44949500D01*
X54078842Y-44949500D01*
X53921158Y-44949500D01*
X53921155Y-44949500D01*
X53766510Y-44980261D01*
X53766498Y-44980264D01*
X53620827Y-45040602D01*
X53620814Y-45040609D01*
X53489711Y-45128210D01*
X53489707Y-45128213D01*
X53378213Y-45239707D01*
X53378210Y-45239711D01*
X53290609Y-45370814D01*
X53290602Y-45370827D01*
X53230264Y-45516498D01*
X53230261Y-45516510D01*
X53199500Y-45671153D01*
X48980242Y-45671153D01*
X48979933Y-45670408D01*
X48959397Y-45620827D01*
X48959390Y-45620814D01*
X48871789Y-45489711D01*
X48871786Y-45489707D01*
X48760292Y-45378213D01*
X48760288Y-45378210D01*
X48629185Y-45290609D01*
X48629172Y-45290602D01*
X48483501Y-45230264D01*
X48483489Y-45230261D01*
X48328845Y-45199500D01*
X48328842Y-45199500D01*
X48171158Y-45199500D01*
X48171155Y-45199500D01*
X48016510Y-45230261D01*
X48016498Y-45230264D01*
X47870827Y-45290602D01*
X47870814Y-45290609D01*
X47739711Y-45378210D01*
X47739707Y-45378213D01*
X47628213Y-45489707D01*
X47628210Y-45489711D01*
X47540609Y-45620814D01*
X47540602Y-45620827D01*
X47480264Y-45766498D01*
X47480261Y-45766510D01*
X47449500Y-45921153D01*
X43747616Y-45921153D01*
X43732996Y-44671153D01*
X62199500Y-44671153D01*
X62199500Y-44828846D01*
X62230261Y-44983489D01*
X62230264Y-44983501D01*
X62290602Y-45129172D01*
X62290609Y-45129185D01*
X62378210Y-45260288D01*
X62378213Y-45260292D01*
X62489707Y-45371786D01*
X62489711Y-45371789D01*
X62620814Y-45459390D01*
X62620827Y-45459397D01*
X62694013Y-45489711D01*
X62766503Y-45519737D01*
X62921153Y-45550499D01*
X62921156Y-45550500D01*
X62921158Y-45550500D01*
X63078844Y-45550500D01*
X63078845Y-45550499D01*
X63233497Y-45519737D01*
X63379179Y-45459394D01*
X63510289Y-45371789D01*
X63621789Y-45260289D01*
X63709394Y-45129179D01*
X63769737Y-44983497D01*
X63800500Y-44828842D01*
X63800500Y-44671158D01*
X63800500Y-44671155D01*
X63800499Y-44671153D01*
X63769738Y-44516510D01*
X63769737Y-44516503D01*
X63769735Y-44516498D01*
X63709397Y-44370827D01*
X63709390Y-44370814D01*
X63621789Y-44239711D01*
X63621786Y-44239707D01*
X63510292Y-44128213D01*
X63510288Y-44128210D01*
X63379185Y-44040609D01*
X63379172Y-44040602D01*
X63233501Y-43980264D01*
X63233489Y-43980261D01*
X63078845Y-43949500D01*
X63078842Y-43949500D01*
X62921158Y-43949500D01*
X62921155Y-43949500D01*
X62766510Y-43980261D01*
X62766498Y-43980264D01*
X62620827Y-44040602D01*
X62620814Y-44040609D01*
X62489711Y-44128210D01*
X62489707Y-44128213D01*
X62378213Y-44239707D01*
X62378210Y-44239711D01*
X62290609Y-44370814D01*
X62290602Y-44370827D01*
X62230264Y-44516498D01*
X62230261Y-44516510D01*
X62199500Y-44671153D01*
X43732996Y-44671153D01*
X43732942Y-44666516D01*
X43674516Y-39671153D01*
X67449500Y-39671153D01*
X67449500Y-39828846D01*
X67480261Y-39983489D01*
X67480264Y-39983501D01*
X67540602Y-40129172D01*
X67540609Y-40129185D01*
X67628210Y-40260288D01*
X67628213Y-40260292D01*
X67739707Y-40371786D01*
X67739711Y-40371789D01*
X67870814Y-40459390D01*
X67870827Y-40459397D01*
X68016498Y-40519735D01*
X68016503Y-40519737D01*
X68171153Y-40550499D01*
X68171156Y-40550500D01*
X68171158Y-40550500D01*
X68328844Y-40550500D01*
X68328845Y-40550499D01*
X68483497Y-40519737D01*
X68629179Y-40459394D01*
X68760289Y-40371789D01*
X68871789Y-40260289D01*
X68959394Y-40129179D01*
X69019737Y-39983497D01*
X69050500Y-39828842D01*
X69050500Y-39671158D01*
X69050500Y-39671155D01*
X69050499Y-39671153D01*
X71199500Y-39671153D01*
X71199500Y-39828846D01*
X71230261Y-39983489D01*
X71230264Y-39983501D01*
X71290602Y-40129172D01*
X71290609Y-40129185D01*
X71378210Y-40260288D01*
X71378213Y-40260292D01*
X71489707Y-40371786D01*
X71489711Y-40371789D01*
X71620814Y-40459390D01*
X71620827Y-40459397D01*
X71766498Y-40519735D01*
X71766503Y-40519737D01*
X71921153Y-40550499D01*
X71921156Y-40550500D01*
X71921158Y-40550500D01*
X72078844Y-40550500D01*
X72078845Y-40550499D01*
X72233497Y-40519737D01*
X72379179Y-40459394D01*
X72510289Y-40371789D01*
X72621789Y-40260289D01*
X72709394Y-40129179D01*
X72769737Y-39983497D01*
X72800500Y-39828842D01*
X72800500Y-39671158D01*
X72800500Y-39671155D01*
X72800499Y-39671153D01*
X72769738Y-39516510D01*
X72769737Y-39516503D01*
X72709794Y-39371786D01*
X72709397Y-39370827D01*
X72709390Y-39370814D01*
X72621789Y-39239711D01*
X72621786Y-39239707D01*
X72510292Y-39128213D01*
X72510288Y-39128210D01*
X72379185Y-39040609D01*
X72379172Y-39040602D01*
X72233501Y-38980264D01*
X72233489Y-38980261D01*
X72078845Y-38949500D01*
X72078842Y-38949500D01*
X71921158Y-38949500D01*
X71921155Y-38949500D01*
X71766510Y-38980261D01*
X71766498Y-38980264D01*
X71620827Y-39040602D01*
X71620814Y-39040609D01*
X71489711Y-39128210D01*
X71489707Y-39128213D01*
X71378213Y-39239707D01*
X71378210Y-39239711D01*
X71290609Y-39370814D01*
X71290602Y-39370827D01*
X71230264Y-39516498D01*
X71230261Y-39516510D01*
X71199500Y-39671153D01*
X69050499Y-39671153D01*
X69019738Y-39516510D01*
X69019737Y-39516503D01*
X68959794Y-39371786D01*
X68959397Y-39370827D01*
X68959390Y-39370814D01*
X68871789Y-39239711D01*
X68871786Y-39239707D01*
X68760292Y-39128213D01*
X68760288Y-39128210D01*
X68629185Y-39040609D01*
X68629172Y-39040602D01*
X68483501Y-38980264D01*
X68483489Y-38980261D01*
X68328845Y-38949500D01*
X68328842Y-38949500D01*
X68171158Y-38949500D01*
X68171155Y-38949500D01*
X68016510Y-38980261D01*
X68016498Y-38980264D01*
X67870827Y-39040602D01*
X67870814Y-39040609D01*
X67739711Y-39128210D01*
X67739707Y-39128213D01*
X67628213Y-39239707D01*
X67628210Y-39239711D01*
X67540609Y-39370814D01*
X67540602Y-39370827D01*
X67480264Y-39516498D01*
X67480261Y-39516510D01*
X67449500Y-39671153D01*
X43674516Y-39671153D01*
X43644427Y-37098543D01*
X45949499Y-37098543D01*
X45987947Y-37291829D01*
X45987950Y-37291839D01*
X46063364Y-37473907D01*
X46063371Y-37473920D01*
X46172860Y-37637781D01*
X46172863Y-37637785D01*
X46312214Y-37777136D01*
X46312218Y-37777139D01*
X46476079Y-37886628D01*
X46476092Y-37886635D01*
X46661865Y-37963584D01*
X46716269Y-38007425D01*
X46738334Y-38073719D01*
X46721055Y-38141418D01*
X46702095Y-38165826D01*
X46628210Y-38239711D01*
X46540609Y-38370814D01*
X46540602Y-38370827D01*
X46480264Y-38516498D01*
X46480261Y-38516510D01*
X46449500Y-38671153D01*
X46449500Y-38828846D01*
X46480261Y-38983489D01*
X46480264Y-38983501D01*
X46540602Y-39129172D01*
X46540609Y-39129185D01*
X46628210Y-39260288D01*
X46628213Y-39260292D01*
X46739707Y-39371786D01*
X46739711Y-39371789D01*
X46870814Y-39459390D01*
X46870827Y-39459397D01*
X47008683Y-39516498D01*
X47016503Y-39519737D01*
X47171153Y-39550499D01*
X47171156Y-39550500D01*
X47171158Y-39550500D01*
X47328844Y-39550500D01*
X47328845Y-39550499D01*
X47483497Y-39519737D01*
X47629179Y-39459394D01*
X47760289Y-39371789D01*
X47871789Y-39260289D01*
X47959394Y-39129179D01*
X48019737Y-38983497D01*
X48050500Y-38828842D01*
X48050500Y-38671158D01*
X48050500Y-38671155D01*
X48050499Y-38671153D01*
X48019738Y-38516510D01*
X48019737Y-38516503D01*
X48019735Y-38516498D01*
X47959397Y-38370827D01*
X47959390Y-38370814D01*
X47871789Y-38239711D01*
X47871786Y-38239707D01*
X47797905Y-38165826D01*
X47764420Y-38104503D01*
X47769404Y-38034811D01*
X47811276Y-37978878D01*
X47838134Y-37963584D01*
X48023907Y-37886635D01*
X48023907Y-37886634D01*
X48023914Y-37886632D01*
X48187782Y-37777139D01*
X48327139Y-37637782D01*
X48436632Y-37473914D01*
X48512051Y-37291835D01*
X48528451Y-37209390D01*
X48550500Y-37098543D01*
X49879499Y-37098543D01*
X49917947Y-37291829D01*
X49917950Y-37291839D01*
X49993364Y-37473907D01*
X49993371Y-37473920D01*
X50102860Y-37637781D01*
X50102863Y-37637785D01*
X50242214Y-37777136D01*
X50242218Y-37777139D01*
X50406079Y-37886628D01*
X50406092Y-37886635D01*
X50588160Y-37962049D01*
X50588165Y-37962051D01*
X50588169Y-37962051D01*
X50588170Y-37962052D01*
X50781456Y-38000500D01*
X50781459Y-38000500D01*
X50818059Y-38000500D01*
X50885098Y-38020185D01*
X50930853Y-38072989D01*
X50940797Y-38142147D01*
X50911772Y-38205703D01*
X50905740Y-38212181D01*
X50878213Y-38239707D01*
X50878210Y-38239711D01*
X50790609Y-38370814D01*
X50790602Y-38370827D01*
X50730264Y-38516498D01*
X50730261Y-38516510D01*
X50699500Y-38671153D01*
X50699500Y-38828846D01*
X50730261Y-38983489D01*
X50730264Y-38983501D01*
X50790602Y-39129172D01*
X50790609Y-39129185D01*
X50878210Y-39260288D01*
X50878213Y-39260292D01*
X50989707Y-39371786D01*
X50989711Y-39371789D01*
X51120814Y-39459390D01*
X51120827Y-39459397D01*
X51258683Y-39516498D01*
X51266503Y-39519737D01*
X51421153Y-39550499D01*
X51421156Y-39550500D01*
X51421158Y-39550500D01*
X51578844Y-39550500D01*
X51578845Y-39550499D01*
X51589179Y-39548443D01*
X51614287Y-39543450D01*
X51614292Y-39543449D01*
X51699800Y-39526439D01*
X51733497Y-39519737D01*
X51879179Y-39459394D01*
X52010289Y-39371789D01*
X52121789Y-39260289D01*
X52209394Y-39129179D01*
X52269737Y-38983497D01*
X52300500Y-38828842D01*
X52300500Y-38671158D01*
X52300500Y-38671155D01*
X52300499Y-38671153D01*
X52269738Y-38516510D01*
X52269737Y-38516503D01*
X52269735Y-38516498D01*
X52209397Y-38370827D01*
X52209390Y-38370814D01*
X52121789Y-38239711D01*
X52121786Y-38239707D01*
X52079131Y-38197052D01*
X52045646Y-38135729D01*
X52050630Y-38066037D01*
X52092502Y-38010104D01*
X52142621Y-37987754D01*
X52198315Y-37976675D01*
X52271835Y-37962051D01*
X52453914Y-37886632D01*
X52617782Y-37777139D01*
X52757139Y-37637782D01*
X52866632Y-37473914D01*
X52942051Y-37291835D01*
X52958451Y-37209390D01*
X52980500Y-37098543D01*
X52980500Y-36901456D01*
X52942052Y-36708170D01*
X52942051Y-36708169D01*
X52942051Y-36708165D01*
X52902544Y-36612787D01*
X52901250Y-36600756D01*
X52895596Y-36590062D01*
X52897585Y-36566666D01*
X52895075Y-36543317D01*
X52900638Y-36530767D01*
X52901516Y-36520443D01*
X52913063Y-36502737D01*
X52918845Y-36489696D01*
X52923738Y-36483339D01*
X52966789Y-36440289D01*
X52979575Y-36421153D01*
X58949500Y-36421153D01*
X58949500Y-36578846D01*
X58980261Y-36733489D01*
X58980264Y-36733501D01*
X59040602Y-36879172D01*
X59040609Y-36879185D01*
X59128210Y-37010288D01*
X59128213Y-37010292D01*
X59239707Y-37121786D01*
X59239711Y-37121789D01*
X59370814Y-37209390D01*
X59370827Y-37209397D01*
X59513304Y-37268412D01*
X59516503Y-37269737D01*
X59627617Y-37291839D01*
X59671153Y-37300499D01*
X59671156Y-37300500D01*
X59671158Y-37300500D01*
X59828844Y-37300500D01*
X59828845Y-37300499D01*
X59983497Y-37269737D01*
X60129179Y-37209394D01*
X60260289Y-37121789D01*
X60371789Y-37010289D01*
X60459394Y-36879179D01*
X60519737Y-36733497D01*
X60532138Y-36671153D01*
X90449500Y-36671153D01*
X90449500Y-36828846D01*
X90480261Y-36983489D01*
X90480264Y-36983501D01*
X90540602Y-37129172D01*
X90540609Y-37129185D01*
X90628210Y-37260288D01*
X90628213Y-37260292D01*
X90739707Y-37371786D01*
X90739711Y-37371789D01*
X90870814Y-37459390D01*
X90870827Y-37459397D01*
X91016498Y-37519735D01*
X91016503Y-37519737D01*
X91171153Y-37550499D01*
X91171156Y-37550500D01*
X91171158Y-37550500D01*
X91328844Y-37550500D01*
X91328845Y-37550499D01*
X91483497Y-37519737D01*
X91629179Y-37459394D01*
X91760289Y-37371789D01*
X91871789Y-37260289D01*
X91959394Y-37129179D01*
X91967398Y-37109853D01*
X92011236Y-37055451D01*
X92077529Y-37033383D01*
X92145229Y-37050660D01*
X92192842Y-37101795D01*
X92199891Y-37118985D01*
X92248444Y-37268416D01*
X92344951Y-37457820D01*
X92469890Y-37629786D01*
X92620213Y-37780109D01*
X92792179Y-37905048D01*
X92792181Y-37905049D01*
X92792184Y-37905051D01*
X92981588Y-38001557D01*
X93183757Y-38067246D01*
X93393713Y-38100500D01*
X93393714Y-38100500D01*
X93606286Y-38100500D01*
X93606287Y-38100500D01*
X93816243Y-38067246D01*
X94018412Y-38001557D01*
X94207816Y-37905051D01*
X94233173Y-37886628D01*
X94379786Y-37780109D01*
X94379788Y-37780106D01*
X94379792Y-37780104D01*
X94530104Y-37629792D01*
X94530106Y-37629788D01*
X94530109Y-37629786D01*
X94653902Y-37459397D01*
X94655051Y-37457816D01*
X94751557Y-37268412D01*
X94817246Y-37066243D01*
X94850500Y-36856287D01*
X94850500Y-36643713D01*
X94817246Y-36433757D01*
X94751557Y-36231588D01*
X94655051Y-36042184D01*
X94655049Y-36042181D01*
X94655048Y-36042179D01*
X94530109Y-35870213D01*
X94379786Y-35719890D01*
X94207820Y-35594951D01*
X94207115Y-35594591D01*
X94199054Y-35590485D01*
X94148259Y-35542512D01*
X94131463Y-35474692D01*
X94153999Y-35408556D01*
X94199054Y-35369515D01*
X94207816Y-35365051D01*
X94231473Y-35347863D01*
X94379786Y-35240109D01*
X94379788Y-35240106D01*
X94379792Y-35240104D01*
X94530104Y-35089792D01*
X94530106Y-35089788D01*
X94530109Y-35089786D01*
X94655048Y-34917820D01*
X94655047Y-34917820D01*
X94655051Y-34917816D01*
X94751557Y-34728412D01*
X94817246Y-34526243D01*
X94850500Y-34316287D01*
X94850500Y-34103713D01*
X94817246Y-33893757D01*
X94751557Y-33691588D01*
X94655051Y-33502184D01*
X94655049Y-33502181D01*
X94655048Y-33502179D01*
X94530109Y-33330213D01*
X94379786Y-33179890D01*
X94207820Y-33054951D01*
X94207115Y-33054591D01*
X94199054Y-33050485D01*
X94148259Y-33002512D01*
X94131463Y-32934692D01*
X94153999Y-32868556D01*
X94199054Y-32829515D01*
X94207816Y-32825051D01*
X94241609Y-32800499D01*
X94379786Y-32700109D01*
X94379788Y-32700106D01*
X94379792Y-32700104D01*
X94530104Y-32549792D01*
X94530106Y-32549788D01*
X94530109Y-32549786D01*
X94655048Y-32377820D01*
X94655047Y-32377820D01*
X94655051Y-32377816D01*
X94751557Y-32188412D01*
X94817246Y-31986243D01*
X94850500Y-31776287D01*
X94850500Y-31563713D01*
X94817246Y-31353757D01*
X94751557Y-31151588D01*
X94655051Y-30962184D01*
X94655049Y-30962181D01*
X94655048Y-30962179D01*
X94530109Y-30790213D01*
X94416181Y-30676285D01*
X94382696Y-30614962D01*
X94387680Y-30545270D01*
X94429552Y-30489337D01*
X94460529Y-30472422D01*
X94592086Y-30423354D01*
X94592093Y-30423350D01*
X94707187Y-30337190D01*
X94707190Y-30337187D01*
X94793350Y-30222093D01*
X94793354Y-30222086D01*
X94843596Y-30087379D01*
X94843598Y-30087372D01*
X94849999Y-30027844D01*
X94850000Y-30027827D01*
X94850000Y-29380000D01*
X93933012Y-29380000D01*
X93965925Y-29322993D01*
X94000000Y-29195826D01*
X94000000Y-29064174D01*
X93965925Y-28937007D01*
X93933012Y-28880000D01*
X94850000Y-28880000D01*
X94850000Y-28232172D01*
X94849999Y-28232155D01*
X94843598Y-28172627D01*
X94843596Y-28172620D01*
X94793354Y-28037913D01*
X94793350Y-28037906D01*
X94707190Y-27922812D01*
X94707187Y-27922809D01*
X94592093Y-27836649D01*
X94592086Y-27836645D01*
X94457379Y-27786403D01*
X94457372Y-27786401D01*
X94397844Y-27780000D01*
X93750000Y-27780000D01*
X93750000Y-28696988D01*
X93692993Y-28664075D01*
X93565826Y-28630000D01*
X93434174Y-28630000D01*
X93307007Y-28664075D01*
X93250000Y-28696988D01*
X93250000Y-27780000D01*
X92602155Y-27780000D01*
X92542627Y-27786401D01*
X92542620Y-27786403D01*
X92407913Y-27836645D01*
X92407906Y-27836649D01*
X92292812Y-27922809D01*
X92292809Y-27922812D01*
X92206649Y-28037906D01*
X92206645Y-28037913D01*
X92156403Y-28172620D01*
X92156401Y-28172627D01*
X92150000Y-28232155D01*
X92150000Y-28880000D01*
X93066988Y-28880000D01*
X93034075Y-28937007D01*
X93000000Y-29064174D01*
X93000000Y-29195826D01*
X93034075Y-29322993D01*
X93066988Y-29380000D01*
X92150000Y-29380000D01*
X92150000Y-30027844D01*
X92156401Y-30087372D01*
X92156403Y-30087379D01*
X92206645Y-30222086D01*
X92206649Y-30222093D01*
X92292809Y-30337187D01*
X92292812Y-30337190D01*
X92407906Y-30423350D01*
X92407913Y-30423354D01*
X92539470Y-30472422D01*
X92595404Y-30514293D01*
X92619821Y-30579758D01*
X92604969Y-30648031D01*
X92583819Y-30676285D01*
X92469889Y-30790215D01*
X92344951Y-30962179D01*
X92248444Y-31151585D01*
X92248443Y-31151587D01*
X92248443Y-31151588D01*
X92215598Y-31252672D01*
X92182753Y-31353760D01*
X92149500Y-31563713D01*
X92149500Y-31776286D01*
X92172444Y-31921153D01*
X92182754Y-31986243D01*
X92212841Y-32078842D01*
X92248444Y-32188414D01*
X92344951Y-32377820D01*
X92469890Y-32549786D01*
X92620213Y-32700109D01*
X92792182Y-32825050D01*
X92800946Y-32829516D01*
X92851742Y-32877491D01*
X92868536Y-32945312D01*
X92845998Y-33011447D01*
X92800946Y-33050484D01*
X92792182Y-33054949D01*
X92620213Y-33179890D01*
X92469890Y-33330213D01*
X92344951Y-33502179D01*
X92248444Y-33691585D01*
X92182753Y-33893760D01*
X92149500Y-34103713D01*
X92149500Y-34316286D01*
X92182753Y-34526239D01*
X92248444Y-34728414D01*
X92344951Y-34917820D01*
X92469890Y-35089786D01*
X92620213Y-35240109D01*
X92792182Y-35365050D01*
X92800946Y-35369516D01*
X92851742Y-35417491D01*
X92868536Y-35485312D01*
X92845998Y-35551447D01*
X92800946Y-35590484D01*
X92792182Y-35594949D01*
X92620213Y-35719890D01*
X92469890Y-35870213D01*
X92344951Y-36042179D01*
X92248444Y-36231583D01*
X92199891Y-36381014D01*
X92160453Y-36438689D01*
X92096094Y-36465887D01*
X92027248Y-36453972D01*
X91975772Y-36406728D01*
X91967398Y-36390145D01*
X91959395Y-36370824D01*
X91959394Y-36370821D01*
X91959392Y-36370818D01*
X91959390Y-36370814D01*
X91871789Y-36239711D01*
X91871786Y-36239707D01*
X91760292Y-36128213D01*
X91760288Y-36128210D01*
X91629185Y-36040609D01*
X91629172Y-36040602D01*
X91483501Y-35980264D01*
X91483489Y-35980261D01*
X91328845Y-35949500D01*
X91328842Y-35949500D01*
X91171158Y-35949500D01*
X91171155Y-35949500D01*
X91016510Y-35980261D01*
X91016498Y-35980264D01*
X90870827Y-36040602D01*
X90870814Y-36040609D01*
X90739711Y-36128210D01*
X90739707Y-36128213D01*
X90628213Y-36239707D01*
X90628210Y-36239711D01*
X90540609Y-36370814D01*
X90540602Y-36370827D01*
X90480264Y-36516498D01*
X90480261Y-36516510D01*
X90449500Y-36671153D01*
X60532138Y-36671153D01*
X60546141Y-36600756D01*
X60550500Y-36578844D01*
X60550500Y-36421155D01*
X60550499Y-36421153D01*
X60534897Y-36342717D01*
X60519737Y-36266503D01*
X60519735Y-36266498D01*
X60459397Y-36120827D01*
X60459390Y-36120814D01*
X60371789Y-35989711D01*
X60371786Y-35989707D01*
X60260292Y-35878213D01*
X60260288Y-35878210D01*
X60129185Y-35790609D01*
X60129172Y-35790602D01*
X59983501Y-35730264D01*
X59983489Y-35730261D01*
X59828845Y-35699500D01*
X59828842Y-35699500D01*
X59671158Y-35699500D01*
X59671155Y-35699500D01*
X59516510Y-35730261D01*
X59516498Y-35730264D01*
X59370827Y-35790602D01*
X59370814Y-35790609D01*
X59239711Y-35878210D01*
X59239707Y-35878213D01*
X59128213Y-35989707D01*
X59128210Y-35989711D01*
X59040609Y-36120814D01*
X59040602Y-36120827D01*
X58980264Y-36266498D01*
X58980261Y-36266510D01*
X58949500Y-36421153D01*
X52979575Y-36421153D01*
X53054394Y-36309179D01*
X53114737Y-36163497D01*
X53145500Y-36008842D01*
X53145500Y-35851158D01*
X53145500Y-35851155D01*
X53145499Y-35851153D01*
X53133760Y-35792136D01*
X53114737Y-35696503D01*
X53072673Y-35594951D01*
X53054397Y-35550827D01*
X53054390Y-35550814D01*
X52966789Y-35419711D01*
X52966786Y-35419707D01*
X52855292Y-35308213D01*
X52855288Y-35308210D01*
X52724185Y-35220609D01*
X52724172Y-35220602D01*
X52578501Y-35160264D01*
X52578489Y-35160261D01*
X52423845Y-35129500D01*
X52423842Y-35129500D01*
X52266158Y-35129500D01*
X52266155Y-35129500D01*
X52111510Y-35160261D01*
X52111498Y-35160264D01*
X51965827Y-35220602D01*
X51965814Y-35220609D01*
X51834711Y-35308210D01*
X51834707Y-35308213D01*
X51723213Y-35419707D01*
X51723208Y-35419713D01*
X51684193Y-35478103D01*
X51630581Y-35522907D01*
X51561256Y-35531614D01*
X51498228Y-35501459D01*
X51461510Y-35442015D01*
X51461364Y-35441479D01*
X51436281Y-35347865D01*
X51360515Y-35216635D01*
X51253365Y-35109485D01*
X51187750Y-35071602D01*
X51122136Y-35033719D01*
X51034688Y-35010288D01*
X50975766Y-34994500D01*
X50824234Y-34994500D01*
X50677863Y-35033719D01*
X50546635Y-35109485D01*
X50546632Y-35109487D01*
X50439487Y-35216632D01*
X50439485Y-35216635D01*
X50363719Y-35347863D01*
X50338682Y-35441304D01*
X50324500Y-35494234D01*
X50324500Y-35645766D01*
X50338095Y-35696503D01*
X50363719Y-35792136D01*
X50397793Y-35851153D01*
X50439485Y-35923365D01*
X50439488Y-35923368D01*
X50444188Y-35929493D01*
X50469383Y-35994662D01*
X50455346Y-36063107D01*
X50410510Y-36109023D01*
X50411151Y-36109983D01*
X50406612Y-36113015D01*
X50406533Y-36113097D01*
X50406296Y-36113226D01*
X50242218Y-36222860D01*
X50242214Y-36222863D01*
X50102863Y-36362214D01*
X50102860Y-36362218D01*
X49993371Y-36526079D01*
X49993364Y-36526092D01*
X49917950Y-36708160D01*
X49917947Y-36708170D01*
X49879500Y-36901456D01*
X49879500Y-36901459D01*
X49879500Y-37098541D01*
X49879500Y-37098543D01*
X49879499Y-37098543D01*
X48550500Y-37098543D01*
X48550500Y-36901456D01*
X48512052Y-36708170D01*
X48512051Y-36708169D01*
X48512051Y-36708165D01*
X48496720Y-36671153D01*
X48436635Y-36526092D01*
X48436628Y-36526079D01*
X48327139Y-36362218D01*
X48327136Y-36362214D01*
X48187785Y-36222863D01*
X48187781Y-36222860D01*
X48023920Y-36113371D01*
X48023907Y-36113364D01*
X47841839Y-36037950D01*
X47841829Y-36037947D01*
X47648543Y-35999500D01*
X47648541Y-35999500D01*
X46851459Y-35999500D01*
X46851457Y-35999500D01*
X46658170Y-36037947D01*
X46658160Y-36037950D01*
X46476092Y-36113364D01*
X46476079Y-36113371D01*
X46312218Y-36222860D01*
X46312214Y-36222863D01*
X46172863Y-36362214D01*
X46172860Y-36362218D01*
X46063371Y-36526079D01*
X46063364Y-36526092D01*
X45987950Y-36708160D01*
X45987947Y-36708170D01*
X45949500Y-36901456D01*
X45949500Y-36901459D01*
X45949500Y-37098541D01*
X45949500Y-37098543D01*
X45949499Y-37098543D01*
X43644427Y-37098543D01*
X43642068Y-36896817D01*
X43613113Y-34421153D01*
X59699500Y-34421153D01*
X59699500Y-34578846D01*
X59730261Y-34733489D01*
X59730264Y-34733501D01*
X59790602Y-34879172D01*
X59790609Y-34879185D01*
X59878210Y-35010288D01*
X59878213Y-35010292D01*
X59989707Y-35121786D01*
X59989711Y-35121789D01*
X60120814Y-35209390D01*
X60120827Y-35209397D01*
X60266498Y-35269735D01*
X60266503Y-35269737D01*
X60421153Y-35300499D01*
X60421156Y-35300500D01*
X60421158Y-35300500D01*
X60578844Y-35300500D01*
X60578845Y-35300499D01*
X60733497Y-35269737D01*
X60879179Y-35209394D01*
X61010289Y-35121789D01*
X61121789Y-35010289D01*
X61209394Y-34879179D01*
X61269737Y-34733497D01*
X61300500Y-34578842D01*
X61300500Y-34421158D01*
X61300500Y-34421155D01*
X61300499Y-34421153D01*
X61299577Y-34416516D01*
X61269737Y-34266503D01*
X61269735Y-34266498D01*
X61209397Y-34120827D01*
X61209390Y-34120814D01*
X61121789Y-33989711D01*
X61121786Y-33989707D01*
X61010292Y-33878213D01*
X61010288Y-33878210D01*
X60879185Y-33790609D01*
X60879172Y-33790602D01*
X60733501Y-33730264D01*
X60733489Y-33730261D01*
X60578845Y-33699500D01*
X60578842Y-33699500D01*
X60421158Y-33699500D01*
X60421155Y-33699500D01*
X60266510Y-33730261D01*
X60266498Y-33730264D01*
X60120827Y-33790602D01*
X60120814Y-33790609D01*
X59989711Y-33878210D01*
X59989707Y-33878213D01*
X59878213Y-33989707D01*
X59878210Y-33989711D01*
X59790609Y-34120814D01*
X59790602Y-34120827D01*
X59730264Y-34266498D01*
X59730261Y-34266510D01*
X59699500Y-34421153D01*
X43613113Y-34421153D01*
X43613059Y-34416516D01*
X43598493Y-33171153D01*
X61949500Y-33171153D01*
X61949500Y-33328846D01*
X61980261Y-33483489D01*
X61980264Y-33483501D01*
X62040602Y-33629172D01*
X62040609Y-33629185D01*
X62128210Y-33760288D01*
X62128213Y-33760292D01*
X62239707Y-33871786D01*
X62239711Y-33871789D01*
X62370814Y-33959390D01*
X62370827Y-33959397D01*
X62444013Y-33989711D01*
X62516503Y-34019737D01*
X62671153Y-34050499D01*
X62671156Y-34050500D01*
X62671158Y-34050500D01*
X62828844Y-34050500D01*
X62828845Y-34050499D01*
X62983497Y-34019737D01*
X63129179Y-33959394D01*
X63260289Y-33871789D01*
X63371789Y-33760289D01*
X63459394Y-33629179D01*
X63519737Y-33483497D01*
X63550500Y-33328842D01*
X63550500Y-33171158D01*
X63550500Y-33171155D01*
X63550499Y-33171153D01*
X63527384Y-33054949D01*
X63519737Y-33016503D01*
X63485850Y-32934692D01*
X63459397Y-32870827D01*
X63459390Y-32870814D01*
X63371789Y-32739711D01*
X63371786Y-32739707D01*
X63260292Y-32628213D01*
X63260288Y-32628210D01*
X63129185Y-32540609D01*
X63129172Y-32540602D01*
X62983501Y-32480264D01*
X62983489Y-32480261D01*
X62828845Y-32449500D01*
X62828842Y-32449500D01*
X62671158Y-32449500D01*
X62671155Y-32449500D01*
X62516510Y-32480261D01*
X62516498Y-32480264D01*
X62370827Y-32540602D01*
X62370814Y-32540609D01*
X62239711Y-32628210D01*
X62239707Y-32628213D01*
X62128213Y-32739707D01*
X62128210Y-32739711D01*
X62040609Y-32870814D01*
X62040602Y-32870827D01*
X61980264Y-33016498D01*
X61980261Y-33016510D01*
X61949500Y-33171153D01*
X43598493Y-33171153D01*
X43583873Y-31921153D01*
X54449500Y-31921153D01*
X54449500Y-32078846D01*
X54480261Y-32233489D01*
X54480264Y-32233501D01*
X54540602Y-32379172D01*
X54540609Y-32379185D01*
X54628210Y-32510288D01*
X54628213Y-32510292D01*
X54739707Y-32621786D01*
X54739711Y-32621789D01*
X54870814Y-32709390D01*
X54870827Y-32709397D01*
X54944013Y-32739711D01*
X55016503Y-32769737D01*
X55171153Y-32800499D01*
X55171156Y-32800500D01*
X55171158Y-32800500D01*
X55328844Y-32800500D01*
X55328845Y-32800499D01*
X55483497Y-32769737D01*
X55629179Y-32709394D01*
X55760289Y-32621789D01*
X55871789Y-32510289D01*
X55959394Y-32379179D01*
X56019737Y-32233497D01*
X56050500Y-32078842D01*
X56050500Y-31921158D01*
X56050500Y-31921155D01*
X56050499Y-31921153D01*
X56019738Y-31766510D01*
X56019737Y-31766503D01*
X56019735Y-31766498D01*
X55959397Y-31620827D01*
X55959390Y-31620814D01*
X55871789Y-31489711D01*
X55871786Y-31489707D01*
X55760292Y-31378213D01*
X55760288Y-31378210D01*
X55629185Y-31290609D01*
X55629172Y-31290602D01*
X55483501Y-31230264D01*
X55483489Y-31230261D01*
X55328845Y-31199500D01*
X55328842Y-31199500D01*
X55171158Y-31199500D01*
X55171155Y-31199500D01*
X55016510Y-31230261D01*
X55016498Y-31230264D01*
X54870827Y-31290602D01*
X54870814Y-31290609D01*
X54739711Y-31378210D01*
X54739707Y-31378213D01*
X54628213Y-31489707D01*
X54628210Y-31489711D01*
X54540609Y-31620814D01*
X54540602Y-31620827D01*
X54480264Y-31766498D01*
X54480261Y-31766510D01*
X54449500Y-31921153D01*
X43583873Y-31921153D01*
X43569253Y-30671153D01*
X61949500Y-30671153D01*
X61949500Y-30828846D01*
X61980261Y-30983489D01*
X61980264Y-30983501D01*
X62040602Y-31129172D01*
X62040609Y-31129185D01*
X62128210Y-31260288D01*
X62128213Y-31260292D01*
X62239707Y-31371786D01*
X62239711Y-31371789D01*
X62370814Y-31459390D01*
X62370827Y-31459397D01*
X62444013Y-31489711D01*
X62516503Y-31519737D01*
X62671153Y-31550499D01*
X62671156Y-31550500D01*
X62671158Y-31550500D01*
X62828844Y-31550500D01*
X62828845Y-31550499D01*
X62983497Y-31519737D01*
X63129179Y-31459394D01*
X63260289Y-31371789D01*
X63371789Y-31260289D01*
X63459394Y-31129179D01*
X63519737Y-30983497D01*
X63550500Y-30828842D01*
X63550500Y-30671158D01*
X63550500Y-30671155D01*
X63550499Y-30671153D01*
X63545900Y-30648031D01*
X63519737Y-30516503D01*
X63479120Y-30418443D01*
X63459397Y-30370827D01*
X63459390Y-30370814D01*
X63371789Y-30239711D01*
X63371786Y-30239707D01*
X63260292Y-30128213D01*
X63260288Y-30128210D01*
X63129185Y-30040609D01*
X63129172Y-30040602D01*
X62983501Y-29980264D01*
X62983489Y-29980261D01*
X62828845Y-29949500D01*
X62828842Y-29949500D01*
X62671158Y-29949500D01*
X62671155Y-29949500D01*
X62516510Y-29980261D01*
X62516498Y-29980264D01*
X62370827Y-30040602D01*
X62370814Y-30040609D01*
X62239711Y-30128210D01*
X62239707Y-30128213D01*
X62128213Y-30239707D01*
X62128210Y-30239711D01*
X62040609Y-30370814D01*
X62040602Y-30370827D01*
X61980264Y-30516498D01*
X61980261Y-30516510D01*
X61949500Y-30671153D01*
X43569253Y-30671153D01*
X43569199Y-30666516D01*
X43565741Y-30370827D01*
X43543375Y-28458543D01*
X45949499Y-28458543D01*
X45987947Y-28651829D01*
X45987950Y-28651839D01*
X46063364Y-28833907D01*
X46063371Y-28833920D01*
X46172860Y-28997781D01*
X46172863Y-28997785D01*
X46312214Y-29137136D01*
X46312218Y-29137139D01*
X46476079Y-29246628D01*
X46476092Y-29246635D01*
X46641480Y-29315140D01*
X46658165Y-29322051D01*
X46658169Y-29322051D01*
X46658170Y-29322052D01*
X46851456Y-29360500D01*
X46851459Y-29360500D01*
X47648543Y-29360500D01*
X47804462Y-29329485D01*
X47841835Y-29322051D01*
X48023914Y-29246632D01*
X48187782Y-29137139D01*
X48327139Y-28997782D01*
X48436632Y-28833914D01*
X48512051Y-28651835D01*
X48550500Y-28458543D01*
X49879499Y-28458543D01*
X49917947Y-28651829D01*
X49917950Y-28651839D01*
X49993364Y-28833907D01*
X49993371Y-28833920D01*
X50102860Y-28997781D01*
X50102863Y-28997785D01*
X50242214Y-29137136D01*
X50242218Y-29137139D01*
X50411151Y-29250017D01*
X50410180Y-29251470D01*
X50454109Y-29294619D01*
X50469571Y-29362757D01*
X50445741Y-29428437D01*
X50444190Y-29430502D01*
X50439489Y-29436627D01*
X50363719Y-29567863D01*
X50324500Y-29714234D01*
X50324500Y-29865765D01*
X50363719Y-30012136D01*
X50386613Y-30051789D01*
X50439485Y-30143365D01*
X50546635Y-30250515D01*
X50677865Y-30326281D01*
X50824234Y-30365500D01*
X50824236Y-30365500D01*
X50975764Y-30365500D01*
X50975766Y-30365500D01*
X51122135Y-30326281D01*
X51253365Y-30250515D01*
X51360515Y-30143365D01*
X51436281Y-30012135D01*
X51461318Y-29918692D01*
X51497681Y-29859035D01*
X51560528Y-29828505D01*
X51629904Y-29836799D01*
X51683782Y-29881284D01*
X51684194Y-29881897D01*
X51723210Y-29940288D01*
X51723213Y-29940292D01*
X51834707Y-30051786D01*
X51834711Y-30051789D01*
X51965814Y-30139390D01*
X51965827Y-30139397D01*
X52111498Y-30199735D01*
X52111503Y-30199737D01*
X52266153Y-30230499D01*
X52266156Y-30230500D01*
X52266158Y-30230500D01*
X52423844Y-30230500D01*
X52423845Y-30230499D01*
X52578497Y-30199737D01*
X52714592Y-30143365D01*
X52724172Y-30139397D01*
X52724172Y-30139396D01*
X52724179Y-30139394D01*
X52855289Y-30051789D01*
X52966789Y-29940289D01*
X53054394Y-29809179D01*
X53114737Y-29663497D01*
X53145500Y-29508842D01*
X53145500Y-29421153D01*
X59699500Y-29421153D01*
X59699500Y-29578846D01*
X59730261Y-29733489D01*
X59730264Y-29733501D01*
X59790602Y-29879172D01*
X59790609Y-29879185D01*
X59878210Y-30010288D01*
X59878213Y-30010292D01*
X59989707Y-30121786D01*
X59989711Y-30121789D01*
X60120814Y-30209390D01*
X60120827Y-30209397D01*
X60266498Y-30269735D01*
X60266503Y-30269737D01*
X60421153Y-30300499D01*
X60421156Y-30300500D01*
X60421158Y-30300500D01*
X60578844Y-30300500D01*
X60578845Y-30300499D01*
X60733497Y-30269737D01*
X60879179Y-30209394D01*
X61010289Y-30121789D01*
X61121789Y-30010289D01*
X61209394Y-29879179D01*
X61269737Y-29733497D01*
X61300500Y-29578842D01*
X61300500Y-29421158D01*
X61300500Y-29421155D01*
X61300499Y-29421153D01*
X61282265Y-29329485D01*
X61269737Y-29266503D01*
X61262908Y-29250017D01*
X61209397Y-29120827D01*
X61209390Y-29120814D01*
X61121789Y-28989711D01*
X61121786Y-28989707D01*
X61010292Y-28878213D01*
X61010288Y-28878210D01*
X60879185Y-28790609D01*
X60879172Y-28790602D01*
X60733501Y-28730264D01*
X60733489Y-28730261D01*
X60578845Y-28699500D01*
X60578842Y-28699500D01*
X60421158Y-28699500D01*
X60421155Y-28699500D01*
X60266510Y-28730261D01*
X60266498Y-28730264D01*
X60120827Y-28790602D01*
X60120814Y-28790609D01*
X59989711Y-28878210D01*
X59989707Y-28878213D01*
X59878213Y-28989707D01*
X59878210Y-28989711D01*
X59790609Y-29120814D01*
X59790602Y-29120827D01*
X59730264Y-29266498D01*
X59730261Y-29266510D01*
X59699500Y-29421153D01*
X53145500Y-29421153D01*
X53145500Y-29351158D01*
X53145500Y-29351155D01*
X53145499Y-29351153D01*
X53139710Y-29322049D01*
X53114737Y-29196503D01*
X53090147Y-29137136D01*
X53054397Y-29050827D01*
X53054390Y-29050814D01*
X52966789Y-28919711D01*
X52966786Y-28919707D01*
X52929424Y-28882345D01*
X52895939Y-28821022D01*
X52900923Y-28751330D01*
X52902533Y-28747237D01*
X52942051Y-28651835D01*
X52980500Y-28458541D01*
X52980500Y-28261459D01*
X52980500Y-28261456D01*
X52942052Y-28068170D01*
X52942051Y-28068169D01*
X52942051Y-28068165D01*
X52887090Y-27935477D01*
X52881157Y-27921153D01*
X67949500Y-27921153D01*
X67949500Y-28078846D01*
X67980261Y-28233489D01*
X67980264Y-28233501D01*
X68040602Y-28379172D01*
X68040609Y-28379185D01*
X68128210Y-28510288D01*
X68128213Y-28510292D01*
X68239707Y-28621786D01*
X68239711Y-28621789D01*
X68370814Y-28709390D01*
X68370827Y-28709397D01*
X68472064Y-28751330D01*
X68516503Y-28769737D01*
X68671153Y-28800499D01*
X68671156Y-28800500D01*
X68671158Y-28800500D01*
X68828844Y-28800500D01*
X68828845Y-28800499D01*
X68983497Y-28769737D01*
X69129179Y-28709394D01*
X69260289Y-28621789D01*
X69371789Y-28510289D01*
X69459394Y-28379179D01*
X69519737Y-28233497D01*
X69520004Y-28232155D01*
X69525474Y-28204658D01*
X69525474Y-28204656D01*
X69550499Y-28078846D01*
X69550500Y-28078844D01*
X69550500Y-27921155D01*
X69550499Y-27921153D01*
X69523695Y-27786401D01*
X69519737Y-27766503D01*
X69501392Y-27722214D01*
X69459397Y-27620827D01*
X69459390Y-27620814D01*
X69371789Y-27489711D01*
X69371786Y-27489707D01*
X69260292Y-27378213D01*
X69260288Y-27378210D01*
X69129185Y-27290609D01*
X69129172Y-27290602D01*
X68983501Y-27230264D01*
X68983489Y-27230261D01*
X68828845Y-27199500D01*
X68828842Y-27199500D01*
X68671158Y-27199500D01*
X68671155Y-27199500D01*
X68516510Y-27230261D01*
X68516498Y-27230264D01*
X68370827Y-27290602D01*
X68370814Y-27290609D01*
X68239711Y-27378210D01*
X68239707Y-27378213D01*
X68128213Y-27489707D01*
X68128210Y-27489711D01*
X68040609Y-27620814D01*
X68040602Y-27620827D01*
X67980264Y-27766498D01*
X67980261Y-27766510D01*
X67949500Y-27921153D01*
X52881157Y-27921153D01*
X52866635Y-27886091D01*
X52866628Y-27886079D01*
X52757139Y-27722218D01*
X52757136Y-27722214D01*
X52617785Y-27582863D01*
X52617781Y-27582860D01*
X52453920Y-27473371D01*
X52453907Y-27473364D01*
X52271839Y-27397950D01*
X52271832Y-27397948D01*
X52240212Y-27391658D01*
X52178302Y-27359271D01*
X52143729Y-27298555D01*
X52147470Y-27228785D01*
X52161305Y-27201149D01*
X52209389Y-27129187D01*
X52209390Y-27129184D01*
X52209394Y-27129179D01*
X52269737Y-26983497D01*
X52300500Y-26828842D01*
X52300500Y-26671158D01*
X52300500Y-26671155D01*
X52300499Y-26671153D01*
X52269738Y-26516510D01*
X52269737Y-26516503D01*
X52269735Y-26516498D01*
X52209397Y-26370827D01*
X52209390Y-26370814D01*
X52121789Y-26239711D01*
X52121786Y-26239707D01*
X52010292Y-26128213D01*
X52010288Y-26128210D01*
X51879185Y-26040609D01*
X51879172Y-26040602D01*
X51733501Y-25980264D01*
X51733489Y-25980261D01*
X51578845Y-25949500D01*
X51578842Y-25949500D01*
X51421158Y-25949500D01*
X51421155Y-25949500D01*
X51266510Y-25980261D01*
X51266498Y-25980264D01*
X51120827Y-26040602D01*
X51120814Y-26040609D01*
X50989711Y-26128210D01*
X50989707Y-26128213D01*
X50878213Y-26239707D01*
X50878210Y-26239711D01*
X50790609Y-26370814D01*
X50790602Y-26370827D01*
X50730264Y-26516498D01*
X50730261Y-26516510D01*
X50699500Y-26671153D01*
X50699500Y-26828846D01*
X50730261Y-26983489D01*
X50730264Y-26983501D01*
X50790602Y-27129172D01*
X50790606Y-27129179D01*
X50822271Y-27176569D01*
X50843149Y-27243246D01*
X50824665Y-27310626D01*
X50772687Y-27357316D01*
X50743361Y-27367077D01*
X50588170Y-27397947D01*
X50588160Y-27397950D01*
X50406092Y-27473364D01*
X50406079Y-27473371D01*
X50242218Y-27582860D01*
X50242214Y-27582863D01*
X50102863Y-27722214D01*
X50102860Y-27722218D01*
X49993371Y-27886079D01*
X49993364Y-27886092D01*
X49917950Y-28068160D01*
X49917947Y-28068170D01*
X49879500Y-28261456D01*
X49879500Y-28261459D01*
X49879500Y-28458541D01*
X49879500Y-28458543D01*
X49879499Y-28458543D01*
X48550500Y-28458543D01*
X48550500Y-28458541D01*
X48550500Y-28261459D01*
X48550500Y-28261456D01*
X48512052Y-28068170D01*
X48512051Y-28068169D01*
X48512051Y-28068165D01*
X48499520Y-28037913D01*
X48436635Y-27886092D01*
X48436628Y-27886079D01*
X48327139Y-27722218D01*
X48327136Y-27722214D01*
X48187785Y-27582863D01*
X48187781Y-27582860D01*
X48023920Y-27473371D01*
X48023910Y-27473366D01*
X47932846Y-27435646D01*
X47878443Y-27391805D01*
X47856378Y-27325511D01*
X47873657Y-27257811D01*
X47877170Y-27252234D01*
X47959394Y-27129179D01*
X48019737Y-26983497D01*
X48050500Y-26828842D01*
X48050500Y-26671158D01*
X48050500Y-26671155D01*
X48050499Y-26671153D01*
X48019738Y-26516510D01*
X48019737Y-26516503D01*
X48019735Y-26516498D01*
X47959397Y-26370827D01*
X47959390Y-26370814D01*
X47871789Y-26239711D01*
X47871786Y-26239707D01*
X47760292Y-26128213D01*
X47760288Y-26128210D01*
X47629185Y-26040609D01*
X47629172Y-26040602D01*
X47483501Y-25980264D01*
X47483489Y-25980261D01*
X47328845Y-25949500D01*
X47328842Y-25949500D01*
X47171158Y-25949500D01*
X47171155Y-25949500D01*
X47016510Y-25980261D01*
X47016498Y-25980264D01*
X46870827Y-26040602D01*
X46870814Y-26040609D01*
X46739711Y-26128210D01*
X46739707Y-26128213D01*
X46628213Y-26239707D01*
X46628210Y-26239711D01*
X46540609Y-26370814D01*
X46540602Y-26370827D01*
X46480264Y-26516498D01*
X46480261Y-26516510D01*
X46449500Y-26671153D01*
X46449500Y-26828846D01*
X46480261Y-26983489D01*
X46480264Y-26983501D01*
X46540602Y-27129172D01*
X46540609Y-27129185D01*
X46622802Y-27252194D01*
X46643680Y-27318871D01*
X46625196Y-27386251D01*
X46573217Y-27432942D01*
X46567153Y-27435646D01*
X46476089Y-27473366D01*
X46476079Y-27473371D01*
X46312218Y-27582860D01*
X46312214Y-27582863D01*
X46172863Y-27722214D01*
X46172860Y-27722218D01*
X46063371Y-27886079D01*
X46063364Y-27886092D01*
X45987950Y-28068160D01*
X45987947Y-28068170D01*
X45949500Y-28261456D01*
X45949500Y-28261459D01*
X45949500Y-28458541D01*
X45949500Y-28458543D01*
X45949499Y-28458543D01*
X43543375Y-28458543D01*
X43501467Y-24875449D01*
X43520367Y-24808185D01*
X43572632Y-24761816D01*
X43625459Y-24750000D01*
X97875500Y-24750000D01*
X97942539Y-24769685D01*
G37*
%TD.AperFunction*%
%TD*%
M02*
