%TF.GenerationSoftware,KiCad,Pcbnew,10.0.6*%
%TF.CreationDate,2026-09-08T15:27:36+03:00*%
%TF.ProjectId,STM32_Breakout,53544d33-325f-4427-9265-616b6f75742e,rev?*%
%TF.SameCoordinates,Original*%
%TF.FileFunction,Copper,L4,Bot*%
%TF.FilePolarity,Positive*%
%FSLAX46Y46*%
G04 Gerber Fmt 4.6, Leading zero omitted, Abs format (unit mm)*
G04 Created by KiCad (PCBNEW 10.0.6) date 2026-09-08 15:27:36*
%MOMM*%
%LPD*%
G01*
G04 APERTURE LIST*
%TA.AperFunction,ComponentPad*%
%ADD10O,2.100000X1.000000*%
%TD*%
%TA.AperFunction,ComponentPad*%
%ADD11O,1.600000X1.000000*%
%TD*%
%TA.AperFunction,ComponentPad*%
%ADD12R,1.700000X1.700000*%
%TD*%
%TA.AperFunction,ComponentPad*%
%ADD13C,1.700000*%
%TD*%
%TA.AperFunction,ViaPad*%
%ADD14C,0.600000*%
%TD*%
%TA.AperFunction,Conductor*%
%ADD15C,0.500000*%
%TD*%
%TA.AperFunction,Conductor*%
%ADD16C,0.200000*%
%TD*%
G04 APERTURE END LIST*
D10*
%TO.P,J2,SH,SHIELD_SH*%
%TO.N,GND*%
X51430000Y-28360000D03*
D11*
X47250000Y-28360000D03*
D10*
X51430000Y-37000000D03*
D11*
X47250000Y-37000000D03*
%TD*%
D12*
%TO.P,J1,1,Pin_1_1*%
%TO.N,+3.3V*%
X93500000Y-29130000D03*
D13*
%TO.P,J1,2,Pin_2_2*%
%TO.N,/SWDIO*%
X93500000Y-31670000D03*
%TO.P,J1,3,Pin_3_3*%
%TO.N,/SWCLK*%
X93500000Y-34210000D03*
%TO.P,J1,4,Pin_4_4*%
%TO.N,GND*%
X93500000Y-36750000D03*
%TD*%
D14*
%TO.N,+5V*%
X59750000Y-36500000D03*
X55250000Y-32000000D03*
%TO.N,GND*%
X52345000Y-29430000D03*
X52345000Y-35930000D03*
%TO.N,+3.3V*%
X71000000Y-47750000D03*
X71500000Y-50000000D03*
X68500000Y-30250000D03*
X67250000Y-30750000D03*
%TO.N,GND*%
X51500000Y-26750000D03*
X47250000Y-26750000D03*
X51500000Y-38750000D03*
X47250000Y-38750000D03*
%TO.N,+3.3V*%
X71000000Y-42750000D03*
X70504449Y-54753569D03*
X72000000Y-61000000D03*
X83000000Y-60750000D03*
X84750000Y-44750000D03*
X91000000Y-29000000D03*
%TO.N,GND*%
X92500000Y-58750000D03*
X87750000Y-58750000D03*
X89500000Y-48750000D03*
%TO.N,+3.3V*%
X91500000Y-48750000D03*
%TO.N,GND*%
X91250000Y-36750000D03*
X60500000Y-34500000D03*
X60500000Y-29500000D03*
X62750000Y-33250000D03*
X62750000Y-30750000D03*
X68750000Y-28000000D03*
X72000000Y-39750000D03*
%TO.N,+3.3V*%
X48500000Y-51000000D03*
%TO.N,GND*%
X48250000Y-46000000D03*
X66750000Y-59000000D03*
X66750000Y-48750000D03*
%TO.N,Net-(U1-NRST)*%
X71750000Y-52250000D03*
%TO.N,GND*%
X68250000Y-39750000D03*
%TO.N,+3.3V*%
X67500000Y-44750000D03*
%TO.N,Net-(U1-NRST)*%
X54000000Y-45750000D03*
%TO.N,Net-(U1-VDDA)*%
X71250000Y-56500000D03*
X86750000Y-56750000D03*
%TO.N,+3.3V*%
X70250000Y-39750000D03*
X70250000Y-64250000D03*
X72250000Y-64250000D03*
X84250000Y-64250000D03*
%TO.N,GND*%
X80000000Y-64250000D03*
X76500000Y-64250000D03*
X66000000Y-64250000D03*
X63000000Y-44750000D03*
%TO.N,+3.3V*%
X78500000Y-30250000D03*
%TD*%
%TO.N,+5V*%
D15*
X55250000Y-32000000D02*
X59750000Y-36500000D01*
%TO.N,Net-(U1-NRST)*%
D16*
X72500000Y-51500000D02*
X71750000Y-52250000D01*
X72500000Y-45750000D02*
X72500000Y-51500000D01*
X54000000Y-45750000D02*
X72500000Y-45750000D01*
%TO.N,Net-(U1-VDDA)*%
X71500000Y-56750000D02*
X71250000Y-56500000D01*
X86750000Y-56750000D02*
X71500000Y-56750000D01*
%TD*%
M02*
