M48
; DRILL file KiCad 10.0.6 date 2026-09-08T15:30:36
; FORMAT={-:-/ absolute / metric / decimal}
; #@! TF.CreationDate,2026-09-08T15:30:36+03:00
; #@! TF.GenerationSoftware,Kicad,Pcbnew,10.0.6
; #@! TF.FileFunction,Plated,1,4,PTH
FMAT,2
METRIC
; #@! TA.AperFunction,Plated,PTH,ViaDrill
T1C0.300
; #@! TA.AperFunction,Plated,PTH,ComponentDrill
T2C0.600
; #@! TA.AperFunction,Plated,PTH,ComponentDrill
T3C1.000
%
G90
G05
T1
X47.25Y-26.75
X47.25Y-38.75
X48.25Y-46.0
X48.5Y-51.0
X51.5Y-26.75
X51.5Y-38.75
X52.345Y-29.43
X52.345Y-35.93
X54.0Y-45.75
X55.25Y-32.0
X59.75Y-36.5
X60.5Y-29.5
X60.5Y-34.5
X62.75Y-30.75
X62.75Y-33.25
X63.0Y-44.75
X66.0Y-64.25
X66.75Y-48.75
X66.75Y-59.0
X67.25Y-30.75
X67.5Y-44.75
X68.25Y-39.75
X68.5Y-30.25
X68.75Y-28.0
X70.25Y-39.75
X70.25Y-64.25
X70.504Y-54.754
X71.0Y-42.75
X71.0Y-47.75
X71.25Y-56.5
X71.5Y-50.0
X71.75Y-52.25
X72.0Y-39.75
X72.0Y-61.0
X72.25Y-64.25
X76.5Y-64.25
X78.5Y-30.25
X80.0Y-64.25
X83.0Y-60.75
X84.25Y-64.25
X84.75Y-44.75
X86.75Y-56.75
X87.75Y-58.75
X89.5Y-48.75
X91.0Y-29.0
X91.25Y-36.75
X91.5Y-48.75
X92.5Y-58.75
T3
X93.5Y-29.13
X93.5Y-31.67
X93.5Y-34.21
X93.5Y-36.75
T2
G00X47.55Y-28.36
M15
G01X46.95Y-28.36
M16
G05
G00X47.55Y-37.0
M15
G01X46.95Y-37.0
M16
G05
G00X51.98Y-28.36
M15
G01X50.88Y-28.36
M16
G05
G00X51.98Y-37.0
M15
G01X50.88Y-37.0
M16
G05
M30
