%TF.GenerationSoftware,KiCad,Pcbnew,10.0.6*%
%TF.CreationDate,2026-09-08T15:27:36+03:00*%
%TF.ProjectId,STM32_Breakout,53544d33-325f-4427-9265-616b6f75742e,rev?*%
%TF.SameCoordinates,Original*%
%TF.FileFunction,Legend,Top*%
%TF.FilePolarity,Positive*%
%FSLAX46Y46*%
G04 Gerber Fmt 4.6, Leading zero omitted, Abs format (unit mm)*
G04 Created by KiCad (PCBNEW 10.0.6) date 2026-09-08 15:27:36*
%MOMM*%
%LPD*%
G01*
G04 APERTURE LIST*
%ADD10C,0.150000*%
%ADD11C,0.120000*%
G04 APERTURE END LIST*
D10*
X69083333Y-39609580D02*
X69035714Y-39657200D01*
X69035714Y-39657200D02*
X68892857Y-39704819D01*
X68892857Y-39704819D02*
X68797619Y-39704819D01*
X68797619Y-39704819D02*
X68654762Y-39657200D01*
X68654762Y-39657200D02*
X68559524Y-39561961D01*
X68559524Y-39561961D02*
X68511905Y-39466723D01*
X68511905Y-39466723D02*
X68464286Y-39276247D01*
X68464286Y-39276247D02*
X68464286Y-39133390D01*
X68464286Y-39133390D02*
X68511905Y-38942914D01*
X68511905Y-38942914D02*
X68559524Y-38847676D01*
X68559524Y-38847676D02*
X68654762Y-38752438D01*
X68654762Y-38752438D02*
X68797619Y-38704819D01*
X68797619Y-38704819D02*
X68892857Y-38704819D01*
X68892857Y-38704819D02*
X69035714Y-38752438D01*
X69035714Y-38752438D02*
X69083333Y-38800057D01*
X69559524Y-39704819D02*
X69750000Y-39704819D01*
X69750000Y-39704819D02*
X69845238Y-39657200D01*
X69845238Y-39657200D02*
X69892857Y-39609580D01*
X69892857Y-39609580D02*
X69988095Y-39466723D01*
X69988095Y-39466723D02*
X70035714Y-39276247D01*
X70035714Y-39276247D02*
X70035714Y-38895295D01*
X70035714Y-38895295D02*
X69988095Y-38800057D01*
X69988095Y-38800057D02*
X69940476Y-38752438D01*
X69940476Y-38752438D02*
X69845238Y-38704819D01*
X69845238Y-38704819D02*
X69654762Y-38704819D01*
X69654762Y-38704819D02*
X69559524Y-38752438D01*
X69559524Y-38752438D02*
X69511905Y-38800057D01*
X69511905Y-38800057D02*
X69464286Y-38895295D01*
X69464286Y-38895295D02*
X69464286Y-39133390D01*
X69464286Y-39133390D02*
X69511905Y-39228628D01*
X69511905Y-39228628D02*
X69559524Y-39276247D01*
X69559524Y-39276247D02*
X69654762Y-39323866D01*
X69654762Y-39323866D02*
X69845238Y-39323866D01*
X69845238Y-39323866D02*
X69940476Y-39276247D01*
X69940476Y-39276247D02*
X69988095Y-39228628D01*
X69988095Y-39228628D02*
X70035714Y-39133390D01*
X65083333Y-43359580D02*
X65035714Y-43407200D01*
X65035714Y-43407200D02*
X64892857Y-43454819D01*
X64892857Y-43454819D02*
X64797619Y-43454819D01*
X64797619Y-43454819D02*
X64654762Y-43407200D01*
X64654762Y-43407200D02*
X64559524Y-43311961D01*
X64559524Y-43311961D02*
X64511905Y-43216723D01*
X64511905Y-43216723D02*
X64464286Y-43026247D01*
X64464286Y-43026247D02*
X64464286Y-42883390D01*
X64464286Y-42883390D02*
X64511905Y-42692914D01*
X64511905Y-42692914D02*
X64559524Y-42597676D01*
X64559524Y-42597676D02*
X64654762Y-42502438D01*
X64654762Y-42502438D02*
X64797619Y-42454819D01*
X64797619Y-42454819D02*
X64892857Y-42454819D01*
X64892857Y-42454819D02*
X65035714Y-42502438D01*
X65035714Y-42502438D02*
X65083333Y-42550057D01*
X65940476Y-42788152D02*
X65940476Y-43454819D01*
X65702381Y-42407200D02*
X65464286Y-43121485D01*
X65464286Y-43121485D02*
X66083333Y-43121485D01*
X48666666Y-25704819D02*
X48666666Y-26419104D01*
X48666666Y-26419104D02*
X48619047Y-26561961D01*
X48619047Y-26561961D02*
X48523809Y-26657200D01*
X48523809Y-26657200D02*
X48380952Y-26704819D01*
X48380952Y-26704819D02*
X48285714Y-26704819D01*
X49095238Y-25800057D02*
X49142857Y-25752438D01*
X49142857Y-25752438D02*
X49238095Y-25704819D01*
X49238095Y-25704819D02*
X49476190Y-25704819D01*
X49476190Y-25704819D02*
X49571428Y-25752438D01*
X49571428Y-25752438D02*
X49619047Y-25800057D01*
X49619047Y-25800057D02*
X49666666Y-25895295D01*
X49666666Y-25895295D02*
X49666666Y-25990533D01*
X49666666Y-25990533D02*
X49619047Y-26133390D01*
X49619047Y-26133390D02*
X49047619Y-26704819D01*
X49047619Y-26704819D02*
X49666666Y-26704819D01*
X65583333Y-56429580D02*
X65535714Y-56477200D01*
X65535714Y-56477200D02*
X65392857Y-56524819D01*
X65392857Y-56524819D02*
X65297619Y-56524819D01*
X65297619Y-56524819D02*
X65154762Y-56477200D01*
X65154762Y-56477200D02*
X65059524Y-56381961D01*
X65059524Y-56381961D02*
X65011905Y-56286723D01*
X65011905Y-56286723D02*
X64964286Y-56096247D01*
X64964286Y-56096247D02*
X64964286Y-55953390D01*
X64964286Y-55953390D02*
X65011905Y-55762914D01*
X65011905Y-55762914D02*
X65059524Y-55667676D01*
X65059524Y-55667676D02*
X65154762Y-55572438D01*
X65154762Y-55572438D02*
X65297619Y-55524819D01*
X65297619Y-55524819D02*
X65392857Y-55524819D01*
X65392857Y-55524819D02*
X65535714Y-55572438D01*
X65535714Y-55572438D02*
X65583333Y-55620057D01*
X65916667Y-55524819D02*
X66535714Y-55524819D01*
X66535714Y-55524819D02*
X66202381Y-55905771D01*
X66202381Y-55905771D02*
X66345238Y-55905771D01*
X66345238Y-55905771D02*
X66440476Y-55953390D01*
X66440476Y-55953390D02*
X66488095Y-56001009D01*
X66488095Y-56001009D02*
X66535714Y-56096247D01*
X66535714Y-56096247D02*
X66535714Y-56334342D01*
X66535714Y-56334342D02*
X66488095Y-56429580D01*
X66488095Y-56429580D02*
X66440476Y-56477200D01*
X66440476Y-56477200D02*
X66345238Y-56524819D01*
X66345238Y-56524819D02*
X66059524Y-56524819D01*
X66059524Y-56524819D02*
X65964286Y-56477200D01*
X65964286Y-56477200D02*
X65916667Y-56429580D01*
X58190833Y-33304819D02*
X57857500Y-32828628D01*
X57619405Y-33304819D02*
X57619405Y-32304819D01*
X57619405Y-32304819D02*
X58000357Y-32304819D01*
X58000357Y-32304819D02*
X58095595Y-32352438D01*
X58095595Y-32352438D02*
X58143214Y-32400057D01*
X58143214Y-32400057D02*
X58190833Y-32495295D01*
X58190833Y-32495295D02*
X58190833Y-32638152D01*
X58190833Y-32638152D02*
X58143214Y-32733390D01*
X58143214Y-32733390D02*
X58095595Y-32781009D01*
X58095595Y-32781009D02*
X58000357Y-32828628D01*
X58000357Y-32828628D02*
X57619405Y-32828628D01*
X59047976Y-32638152D02*
X59047976Y-33304819D01*
X58809881Y-32257200D02*
X58571786Y-32971485D01*
X58571786Y-32971485D02*
X59190833Y-32971485D01*
X90083333Y-45859580D02*
X90035714Y-45907200D01*
X90035714Y-45907200D02*
X89892857Y-45954819D01*
X89892857Y-45954819D02*
X89797619Y-45954819D01*
X89797619Y-45954819D02*
X89654762Y-45907200D01*
X89654762Y-45907200D02*
X89559524Y-45811961D01*
X89559524Y-45811961D02*
X89511905Y-45716723D01*
X89511905Y-45716723D02*
X89464286Y-45526247D01*
X89464286Y-45526247D02*
X89464286Y-45383390D01*
X89464286Y-45383390D02*
X89511905Y-45192914D01*
X89511905Y-45192914D02*
X89559524Y-45097676D01*
X89559524Y-45097676D02*
X89654762Y-45002438D01*
X89654762Y-45002438D02*
X89797619Y-44954819D01*
X89797619Y-44954819D02*
X89892857Y-44954819D01*
X89892857Y-44954819D02*
X90035714Y-45002438D01*
X90035714Y-45002438D02*
X90083333Y-45050057D01*
X90654762Y-45383390D02*
X90559524Y-45335771D01*
X90559524Y-45335771D02*
X90511905Y-45288152D01*
X90511905Y-45288152D02*
X90464286Y-45192914D01*
X90464286Y-45192914D02*
X90464286Y-45145295D01*
X90464286Y-45145295D02*
X90511905Y-45050057D01*
X90511905Y-45050057D02*
X90559524Y-45002438D01*
X90559524Y-45002438D02*
X90654762Y-44954819D01*
X90654762Y-44954819D02*
X90845238Y-44954819D01*
X90845238Y-44954819D02*
X90940476Y-45002438D01*
X90940476Y-45002438D02*
X90988095Y-45050057D01*
X90988095Y-45050057D02*
X91035714Y-45145295D01*
X91035714Y-45145295D02*
X91035714Y-45192914D01*
X91035714Y-45192914D02*
X90988095Y-45288152D01*
X90988095Y-45288152D02*
X90940476Y-45335771D01*
X90940476Y-45335771D02*
X90845238Y-45383390D01*
X90845238Y-45383390D02*
X90654762Y-45383390D01*
X90654762Y-45383390D02*
X90559524Y-45431009D01*
X90559524Y-45431009D02*
X90511905Y-45478628D01*
X90511905Y-45478628D02*
X90464286Y-45573866D01*
X90464286Y-45573866D02*
X90464286Y-45764342D01*
X90464286Y-45764342D02*
X90511905Y-45859580D01*
X90511905Y-45859580D02*
X90559524Y-45907200D01*
X90559524Y-45907200D02*
X90654762Y-45954819D01*
X90654762Y-45954819D02*
X90845238Y-45954819D01*
X90845238Y-45954819D02*
X90940476Y-45907200D01*
X90940476Y-45907200D02*
X90988095Y-45859580D01*
X90988095Y-45859580D02*
X91035714Y-45764342D01*
X91035714Y-45764342D02*
X91035714Y-45573866D01*
X91035714Y-45573866D02*
X90988095Y-45478628D01*
X90988095Y-45478628D02*
X90940476Y-45431009D01*
X90940476Y-45431009D02*
X90845238Y-45383390D01*
X50333333Y-49804819D02*
X50000000Y-49328628D01*
X49761905Y-49804819D02*
X49761905Y-48804819D01*
X49761905Y-48804819D02*
X50142857Y-48804819D01*
X50142857Y-48804819D02*
X50238095Y-48852438D01*
X50238095Y-48852438D02*
X50285714Y-48900057D01*
X50285714Y-48900057D02*
X50333333Y-48995295D01*
X50333333Y-48995295D02*
X50333333Y-49138152D01*
X50333333Y-49138152D02*
X50285714Y-49233390D01*
X50285714Y-49233390D02*
X50238095Y-49281009D01*
X50238095Y-49281009D02*
X50142857Y-49328628D01*
X50142857Y-49328628D02*
X49761905Y-49328628D01*
X51285714Y-49804819D02*
X50714286Y-49804819D01*
X51000000Y-49804819D02*
X51000000Y-48804819D01*
X51000000Y-48804819D02*
X50904762Y-48947676D01*
X50904762Y-48947676D02*
X50809524Y-49042914D01*
X50809524Y-49042914D02*
X50714286Y-49090533D01*
X64278628Y-55226190D02*
X64754819Y-55226190D01*
X63754819Y-55559523D02*
X64278628Y-55226190D01*
X64278628Y-55226190D02*
X63754819Y-54892857D01*
X64754819Y-54035714D02*
X64754819Y-54607142D01*
X64754819Y-54321428D02*
X63754819Y-54321428D01*
X63754819Y-54321428D02*
X63897676Y-54416666D01*
X63897676Y-54416666D02*
X63992914Y-54511904D01*
X63992914Y-54511904D02*
X64040533Y-54607142D01*
X58245833Y-28304819D02*
X57912500Y-27828628D01*
X57674405Y-28304819D02*
X57674405Y-27304819D01*
X57674405Y-27304819D02*
X58055357Y-27304819D01*
X58055357Y-27304819D02*
X58150595Y-27352438D01*
X58150595Y-27352438D02*
X58198214Y-27400057D01*
X58198214Y-27400057D02*
X58245833Y-27495295D01*
X58245833Y-27495295D02*
X58245833Y-27638152D01*
X58245833Y-27638152D02*
X58198214Y-27733390D01*
X58198214Y-27733390D02*
X58150595Y-27781009D01*
X58150595Y-27781009D02*
X58055357Y-27828628D01*
X58055357Y-27828628D02*
X57674405Y-27828628D01*
X58579167Y-27304819D02*
X59198214Y-27304819D01*
X59198214Y-27304819D02*
X58864881Y-27685771D01*
X58864881Y-27685771D02*
X59007738Y-27685771D01*
X59007738Y-27685771D02*
X59102976Y-27733390D01*
X59102976Y-27733390D02*
X59150595Y-27781009D01*
X59150595Y-27781009D02*
X59198214Y-27876247D01*
X59198214Y-27876247D02*
X59198214Y-28114342D01*
X59198214Y-28114342D02*
X59150595Y-28209580D01*
X59150595Y-28209580D02*
X59102976Y-28257200D01*
X59102976Y-28257200D02*
X59007738Y-28304819D01*
X59007738Y-28304819D02*
X58722024Y-28304819D01*
X58722024Y-28304819D02*
X58626786Y-28257200D01*
X58626786Y-28257200D02*
X58579167Y-28209580D01*
X72920833Y-39704819D02*
X72587500Y-39228628D01*
X72349405Y-39704819D02*
X72349405Y-38704819D01*
X72349405Y-38704819D02*
X72730357Y-38704819D01*
X72730357Y-38704819D02*
X72825595Y-38752438D01*
X72825595Y-38752438D02*
X72873214Y-38800057D01*
X72873214Y-38800057D02*
X72920833Y-38895295D01*
X72920833Y-38895295D02*
X72920833Y-39038152D01*
X72920833Y-39038152D02*
X72873214Y-39133390D01*
X72873214Y-39133390D02*
X72825595Y-39181009D01*
X72825595Y-39181009D02*
X72730357Y-39228628D01*
X72730357Y-39228628D02*
X72349405Y-39228628D01*
X73301786Y-38800057D02*
X73349405Y-38752438D01*
X73349405Y-38752438D02*
X73444643Y-38704819D01*
X73444643Y-38704819D02*
X73682738Y-38704819D01*
X73682738Y-38704819D02*
X73777976Y-38752438D01*
X73777976Y-38752438D02*
X73825595Y-38800057D01*
X73825595Y-38800057D02*
X73873214Y-38895295D01*
X73873214Y-38895295D02*
X73873214Y-38990533D01*
X73873214Y-38990533D02*
X73825595Y-39133390D01*
X73825595Y-39133390D02*
X73254167Y-39704819D01*
X73254167Y-39704819D02*
X73873214Y-39704819D01*
X93166666Y-26204819D02*
X93166666Y-26919104D01*
X93166666Y-26919104D02*
X93119047Y-27061961D01*
X93119047Y-27061961D02*
X93023809Y-27157200D01*
X93023809Y-27157200D02*
X92880952Y-27204819D01*
X92880952Y-27204819D02*
X92785714Y-27204819D01*
X94166666Y-27204819D02*
X93595238Y-27204819D01*
X93880952Y-27204819D02*
X93880952Y-26204819D01*
X93880952Y-26204819D02*
X93785714Y-26347676D01*
X93785714Y-26347676D02*
X93690476Y-26442914D01*
X93690476Y-26442914D02*
X93595238Y-26490533D01*
X92104166Y-51631009D02*
X91770833Y-51631009D01*
X91770833Y-52154819D02*
X91770833Y-51154819D01*
X91770833Y-51154819D02*
X92247023Y-51154819D01*
X92961309Y-51631009D02*
X93104166Y-51678628D01*
X93104166Y-51678628D02*
X93151785Y-51726247D01*
X93151785Y-51726247D02*
X93199404Y-51821485D01*
X93199404Y-51821485D02*
X93199404Y-51964342D01*
X93199404Y-51964342D02*
X93151785Y-52059580D01*
X93151785Y-52059580D02*
X93104166Y-52107200D01*
X93104166Y-52107200D02*
X93008928Y-52154819D01*
X93008928Y-52154819D02*
X92627976Y-52154819D01*
X92627976Y-52154819D02*
X92627976Y-51154819D01*
X92627976Y-51154819D02*
X92961309Y-51154819D01*
X92961309Y-51154819D02*
X93056547Y-51202438D01*
X93056547Y-51202438D02*
X93104166Y-51250057D01*
X93104166Y-51250057D02*
X93151785Y-51345295D01*
X93151785Y-51345295D02*
X93151785Y-51440533D01*
X93151785Y-51440533D02*
X93104166Y-51535771D01*
X93104166Y-51535771D02*
X93056547Y-51583390D01*
X93056547Y-51583390D02*
X92961309Y-51631009D01*
X92961309Y-51631009D02*
X92627976Y-51631009D01*
X94151785Y-52154819D02*
X93580357Y-52154819D01*
X93866071Y-52154819D02*
X93866071Y-51154819D01*
X93866071Y-51154819D02*
X93770833Y-51297676D01*
X93770833Y-51297676D02*
X93675595Y-51392914D01*
X93675595Y-51392914D02*
X93580357Y-51440533D01*
X63857142Y-29609580D02*
X63809523Y-29657200D01*
X63809523Y-29657200D02*
X63666666Y-29704819D01*
X63666666Y-29704819D02*
X63571428Y-29704819D01*
X63571428Y-29704819D02*
X63428571Y-29657200D01*
X63428571Y-29657200D02*
X63333333Y-29561961D01*
X63333333Y-29561961D02*
X63285714Y-29466723D01*
X63285714Y-29466723D02*
X63238095Y-29276247D01*
X63238095Y-29276247D02*
X63238095Y-29133390D01*
X63238095Y-29133390D02*
X63285714Y-28942914D01*
X63285714Y-28942914D02*
X63333333Y-28847676D01*
X63333333Y-28847676D02*
X63428571Y-28752438D01*
X63428571Y-28752438D02*
X63571428Y-28704819D01*
X63571428Y-28704819D02*
X63666666Y-28704819D01*
X63666666Y-28704819D02*
X63809523Y-28752438D01*
X63809523Y-28752438D02*
X63857142Y-28800057D01*
X64809523Y-29704819D02*
X64238095Y-29704819D01*
X64523809Y-29704819D02*
X64523809Y-28704819D01*
X64523809Y-28704819D02*
X64428571Y-28847676D01*
X64428571Y-28847676D02*
X64333333Y-28942914D01*
X64333333Y-28942914D02*
X64238095Y-28990533D01*
X65142857Y-28704819D02*
X65761904Y-28704819D01*
X65761904Y-28704819D02*
X65428571Y-29085771D01*
X65428571Y-29085771D02*
X65571428Y-29085771D01*
X65571428Y-29085771D02*
X65666666Y-29133390D01*
X65666666Y-29133390D02*
X65714285Y-29181009D01*
X65714285Y-29181009D02*
X65761904Y-29276247D01*
X65761904Y-29276247D02*
X65761904Y-29514342D01*
X65761904Y-29514342D02*
X65714285Y-29609580D01*
X65714285Y-29609580D02*
X65666666Y-29657200D01*
X65666666Y-29657200D02*
X65571428Y-29704819D01*
X65571428Y-29704819D02*
X65285714Y-29704819D01*
X65285714Y-29704819D02*
X65190476Y-29657200D01*
X65190476Y-29657200D02*
X65142857Y-29609580D01*
X64307142Y-35289580D02*
X64259523Y-35337200D01*
X64259523Y-35337200D02*
X64116666Y-35384819D01*
X64116666Y-35384819D02*
X64021428Y-35384819D01*
X64021428Y-35384819D02*
X63878571Y-35337200D01*
X63878571Y-35337200D02*
X63783333Y-35241961D01*
X63783333Y-35241961D02*
X63735714Y-35146723D01*
X63735714Y-35146723D02*
X63688095Y-34956247D01*
X63688095Y-34956247D02*
X63688095Y-34813390D01*
X63688095Y-34813390D02*
X63735714Y-34622914D01*
X63735714Y-34622914D02*
X63783333Y-34527676D01*
X63783333Y-34527676D02*
X63878571Y-34432438D01*
X63878571Y-34432438D02*
X64021428Y-34384819D01*
X64021428Y-34384819D02*
X64116666Y-34384819D01*
X64116666Y-34384819D02*
X64259523Y-34432438D01*
X64259523Y-34432438D02*
X64307142Y-34480057D01*
X65259523Y-35384819D02*
X64688095Y-35384819D01*
X64973809Y-35384819D02*
X64973809Y-34384819D01*
X64973809Y-34384819D02*
X64878571Y-34527676D01*
X64878571Y-34527676D02*
X64783333Y-34622914D01*
X64783333Y-34622914D02*
X64688095Y-34670533D01*
X65640476Y-34480057D02*
X65688095Y-34432438D01*
X65688095Y-34432438D02*
X65783333Y-34384819D01*
X65783333Y-34384819D02*
X66021428Y-34384819D01*
X66021428Y-34384819D02*
X66116666Y-34432438D01*
X66116666Y-34432438D02*
X66164285Y-34480057D01*
X66164285Y-34480057D02*
X66211904Y-34575295D01*
X66211904Y-34575295D02*
X66211904Y-34670533D01*
X66211904Y-34670533D02*
X66164285Y-34813390D01*
X66164285Y-34813390D02*
X65592857Y-35384819D01*
X65592857Y-35384819D02*
X66211904Y-35384819D01*
X88807142Y-60659580D02*
X88759523Y-60707200D01*
X88759523Y-60707200D02*
X88616666Y-60754819D01*
X88616666Y-60754819D02*
X88521428Y-60754819D01*
X88521428Y-60754819D02*
X88378571Y-60707200D01*
X88378571Y-60707200D02*
X88283333Y-60611961D01*
X88283333Y-60611961D02*
X88235714Y-60516723D01*
X88235714Y-60516723D02*
X88188095Y-60326247D01*
X88188095Y-60326247D02*
X88188095Y-60183390D01*
X88188095Y-60183390D02*
X88235714Y-59992914D01*
X88235714Y-59992914D02*
X88283333Y-59897676D01*
X88283333Y-59897676D02*
X88378571Y-59802438D01*
X88378571Y-59802438D02*
X88521428Y-59754819D01*
X88521428Y-59754819D02*
X88616666Y-59754819D01*
X88616666Y-59754819D02*
X88759523Y-59802438D01*
X88759523Y-59802438D02*
X88807142Y-59850057D01*
X89759523Y-60754819D02*
X89188095Y-60754819D01*
X89473809Y-60754819D02*
X89473809Y-59754819D01*
X89473809Y-59754819D02*
X89378571Y-59897676D01*
X89378571Y-59897676D02*
X89283333Y-59992914D01*
X89283333Y-59992914D02*
X89188095Y-60040533D01*
X90711904Y-60754819D02*
X90140476Y-60754819D01*
X90426190Y-60754819D02*
X90426190Y-59754819D01*
X90426190Y-59754819D02*
X90330952Y-59897676D01*
X90330952Y-59897676D02*
X90235714Y-59992914D01*
X90235714Y-59992914D02*
X90140476Y-60040533D01*
X93307142Y-60659580D02*
X93259523Y-60707200D01*
X93259523Y-60707200D02*
X93116666Y-60754819D01*
X93116666Y-60754819D02*
X93021428Y-60754819D01*
X93021428Y-60754819D02*
X92878571Y-60707200D01*
X92878571Y-60707200D02*
X92783333Y-60611961D01*
X92783333Y-60611961D02*
X92735714Y-60516723D01*
X92735714Y-60516723D02*
X92688095Y-60326247D01*
X92688095Y-60326247D02*
X92688095Y-60183390D01*
X92688095Y-60183390D02*
X92735714Y-59992914D01*
X92735714Y-59992914D02*
X92783333Y-59897676D01*
X92783333Y-59897676D02*
X92878571Y-59802438D01*
X92878571Y-59802438D02*
X93021428Y-59754819D01*
X93021428Y-59754819D02*
X93116666Y-59754819D01*
X93116666Y-59754819D02*
X93259523Y-59802438D01*
X93259523Y-59802438D02*
X93307142Y-59850057D01*
X94259523Y-60754819D02*
X93688095Y-60754819D01*
X93973809Y-60754819D02*
X93973809Y-59754819D01*
X93973809Y-59754819D02*
X93878571Y-59897676D01*
X93878571Y-59897676D02*
X93783333Y-59992914D01*
X93783333Y-59992914D02*
X93688095Y-60040533D01*
X94878571Y-59754819D02*
X94973809Y-59754819D01*
X94973809Y-59754819D02*
X95069047Y-59802438D01*
X95069047Y-59802438D02*
X95116666Y-59850057D01*
X95116666Y-59850057D02*
X95164285Y-59945295D01*
X95164285Y-59945295D02*
X95211904Y-60135771D01*
X95211904Y-60135771D02*
X95211904Y-60373866D01*
X95211904Y-60373866D02*
X95164285Y-60564342D01*
X95164285Y-60564342D02*
X95116666Y-60659580D01*
X95116666Y-60659580D02*
X95069047Y-60707200D01*
X95069047Y-60707200D02*
X94973809Y-60754819D01*
X94973809Y-60754819D02*
X94878571Y-60754819D01*
X94878571Y-60754819D02*
X94783333Y-60707200D01*
X94783333Y-60707200D02*
X94735714Y-60659580D01*
X94735714Y-60659580D02*
X94688095Y-60564342D01*
X94688095Y-60564342D02*
X94640476Y-60373866D01*
X94640476Y-60373866D02*
X94640476Y-60135771D01*
X94640476Y-60135771D02*
X94688095Y-59945295D01*
X94688095Y-59945295D02*
X94735714Y-59850057D01*
X94735714Y-59850057D02*
X94783333Y-59802438D01*
X94783333Y-59802438D02*
X94878571Y-59754819D01*
X81833333Y-62859580D02*
X81785714Y-62907200D01*
X81785714Y-62907200D02*
X81642857Y-62954819D01*
X81642857Y-62954819D02*
X81547619Y-62954819D01*
X81547619Y-62954819D02*
X81404762Y-62907200D01*
X81404762Y-62907200D02*
X81309524Y-62811961D01*
X81309524Y-62811961D02*
X81261905Y-62716723D01*
X81261905Y-62716723D02*
X81214286Y-62526247D01*
X81214286Y-62526247D02*
X81214286Y-62383390D01*
X81214286Y-62383390D02*
X81261905Y-62192914D01*
X81261905Y-62192914D02*
X81309524Y-62097676D01*
X81309524Y-62097676D02*
X81404762Y-62002438D01*
X81404762Y-62002438D02*
X81547619Y-61954819D01*
X81547619Y-61954819D02*
X81642857Y-61954819D01*
X81642857Y-61954819D02*
X81785714Y-62002438D01*
X81785714Y-62002438D02*
X81833333Y-62050057D01*
X82166667Y-61954819D02*
X82833333Y-61954819D01*
X82833333Y-61954819D02*
X82404762Y-62954819D01*
X74083333Y-62859580D02*
X74035714Y-62907200D01*
X74035714Y-62907200D02*
X73892857Y-62954819D01*
X73892857Y-62954819D02*
X73797619Y-62954819D01*
X73797619Y-62954819D02*
X73654762Y-62907200D01*
X73654762Y-62907200D02*
X73559524Y-62811961D01*
X73559524Y-62811961D02*
X73511905Y-62716723D01*
X73511905Y-62716723D02*
X73464286Y-62526247D01*
X73464286Y-62526247D02*
X73464286Y-62383390D01*
X73464286Y-62383390D02*
X73511905Y-62192914D01*
X73511905Y-62192914D02*
X73559524Y-62097676D01*
X73559524Y-62097676D02*
X73654762Y-62002438D01*
X73654762Y-62002438D02*
X73797619Y-61954819D01*
X73797619Y-61954819D02*
X73892857Y-61954819D01*
X73892857Y-61954819D02*
X74035714Y-62002438D01*
X74035714Y-62002438D02*
X74083333Y-62050057D01*
X74940476Y-61954819D02*
X74750000Y-61954819D01*
X74750000Y-61954819D02*
X74654762Y-62002438D01*
X74654762Y-62002438D02*
X74607143Y-62050057D01*
X74607143Y-62050057D02*
X74511905Y-62192914D01*
X74511905Y-62192914D02*
X74464286Y-62383390D01*
X74464286Y-62383390D02*
X74464286Y-62764342D01*
X74464286Y-62764342D02*
X74511905Y-62859580D01*
X74511905Y-62859580D02*
X74559524Y-62907200D01*
X74559524Y-62907200D02*
X74654762Y-62954819D01*
X74654762Y-62954819D02*
X74845238Y-62954819D01*
X74845238Y-62954819D02*
X74940476Y-62907200D01*
X74940476Y-62907200D02*
X74988095Y-62859580D01*
X74988095Y-62859580D02*
X75035714Y-62764342D01*
X75035714Y-62764342D02*
X75035714Y-62526247D01*
X75035714Y-62526247D02*
X74988095Y-62431009D01*
X74988095Y-62431009D02*
X74940476Y-62383390D01*
X74940476Y-62383390D02*
X74845238Y-62335771D01*
X74845238Y-62335771D02*
X74654762Y-62335771D01*
X74654762Y-62335771D02*
X74559524Y-62383390D01*
X74559524Y-62383390D02*
X74511905Y-62431009D01*
X74511905Y-62431009D02*
X74464286Y-62526247D01*
X68083333Y-62859580D02*
X68035714Y-62907200D01*
X68035714Y-62907200D02*
X67892857Y-62954819D01*
X67892857Y-62954819D02*
X67797619Y-62954819D01*
X67797619Y-62954819D02*
X67654762Y-62907200D01*
X67654762Y-62907200D02*
X67559524Y-62811961D01*
X67559524Y-62811961D02*
X67511905Y-62716723D01*
X67511905Y-62716723D02*
X67464286Y-62526247D01*
X67464286Y-62526247D02*
X67464286Y-62383390D01*
X67464286Y-62383390D02*
X67511905Y-62192914D01*
X67511905Y-62192914D02*
X67559524Y-62097676D01*
X67559524Y-62097676D02*
X67654762Y-62002438D01*
X67654762Y-62002438D02*
X67797619Y-61954819D01*
X67797619Y-61954819D02*
X67892857Y-61954819D01*
X67892857Y-61954819D02*
X68035714Y-62002438D01*
X68035714Y-62002438D02*
X68083333Y-62050057D01*
X68988095Y-61954819D02*
X68511905Y-61954819D01*
X68511905Y-61954819D02*
X68464286Y-62431009D01*
X68464286Y-62431009D02*
X68511905Y-62383390D01*
X68511905Y-62383390D02*
X68607143Y-62335771D01*
X68607143Y-62335771D02*
X68845238Y-62335771D01*
X68845238Y-62335771D02*
X68940476Y-62383390D01*
X68940476Y-62383390D02*
X68988095Y-62431009D01*
X68988095Y-62431009D02*
X69035714Y-62526247D01*
X69035714Y-62526247D02*
X69035714Y-62764342D01*
X69035714Y-62764342D02*
X68988095Y-62859580D01*
X68988095Y-62859580D02*
X68940476Y-62907200D01*
X68940476Y-62907200D02*
X68845238Y-62954819D01*
X68845238Y-62954819D02*
X68607143Y-62954819D01*
X68607143Y-62954819D02*
X68511905Y-62907200D01*
X68511905Y-62907200D02*
X68464286Y-62859580D01*
X65583333Y-48929580D02*
X65535714Y-48977200D01*
X65535714Y-48977200D02*
X65392857Y-49024819D01*
X65392857Y-49024819D02*
X65297619Y-49024819D01*
X65297619Y-49024819D02*
X65154762Y-48977200D01*
X65154762Y-48977200D02*
X65059524Y-48881961D01*
X65059524Y-48881961D02*
X65011905Y-48786723D01*
X65011905Y-48786723D02*
X64964286Y-48596247D01*
X64964286Y-48596247D02*
X64964286Y-48453390D01*
X64964286Y-48453390D02*
X65011905Y-48262914D01*
X65011905Y-48262914D02*
X65059524Y-48167676D01*
X65059524Y-48167676D02*
X65154762Y-48072438D01*
X65154762Y-48072438D02*
X65297619Y-48024819D01*
X65297619Y-48024819D02*
X65392857Y-48024819D01*
X65392857Y-48024819D02*
X65535714Y-48072438D01*
X65535714Y-48072438D02*
X65583333Y-48120057D01*
X65964286Y-48120057D02*
X66011905Y-48072438D01*
X66011905Y-48072438D02*
X66107143Y-48024819D01*
X66107143Y-48024819D02*
X66345238Y-48024819D01*
X66345238Y-48024819D02*
X66440476Y-48072438D01*
X66440476Y-48072438D02*
X66488095Y-48120057D01*
X66488095Y-48120057D02*
X66535714Y-48215295D01*
X66535714Y-48215295D02*
X66535714Y-48310533D01*
X66535714Y-48310533D02*
X66488095Y-48453390D01*
X66488095Y-48453390D02*
X65916667Y-49024819D01*
X65916667Y-49024819D02*
X66535714Y-49024819D01*
X72688095Y-25204819D02*
X72688095Y-26014342D01*
X72688095Y-26014342D02*
X72735714Y-26109580D01*
X72735714Y-26109580D02*
X72783333Y-26157200D01*
X72783333Y-26157200D02*
X72878571Y-26204819D01*
X72878571Y-26204819D02*
X73069047Y-26204819D01*
X73069047Y-26204819D02*
X73164285Y-26157200D01*
X73164285Y-26157200D02*
X73211904Y-26109580D01*
X73211904Y-26109580D02*
X73259523Y-26014342D01*
X73259523Y-26014342D02*
X73259523Y-25204819D01*
X73688095Y-25300057D02*
X73735714Y-25252438D01*
X73735714Y-25252438D02*
X73830952Y-25204819D01*
X73830952Y-25204819D02*
X74069047Y-25204819D01*
X74069047Y-25204819D02*
X74164285Y-25252438D01*
X74164285Y-25252438D02*
X74211904Y-25300057D01*
X74211904Y-25300057D02*
X74259523Y-25395295D01*
X74259523Y-25395295D02*
X74259523Y-25490533D01*
X74259523Y-25490533D02*
X74211904Y-25633390D01*
X74211904Y-25633390D02*
X73640476Y-26204819D01*
X73640476Y-26204819D02*
X74259523Y-26204819D01*
X50283333Y-44679580D02*
X50235714Y-44727200D01*
X50235714Y-44727200D02*
X50092857Y-44774819D01*
X50092857Y-44774819D02*
X49997619Y-44774819D01*
X49997619Y-44774819D02*
X49854762Y-44727200D01*
X49854762Y-44727200D02*
X49759524Y-44631961D01*
X49759524Y-44631961D02*
X49711905Y-44536723D01*
X49711905Y-44536723D02*
X49664286Y-44346247D01*
X49664286Y-44346247D02*
X49664286Y-44203390D01*
X49664286Y-44203390D02*
X49711905Y-44012914D01*
X49711905Y-44012914D02*
X49759524Y-43917676D01*
X49759524Y-43917676D02*
X49854762Y-43822438D01*
X49854762Y-43822438D02*
X49997619Y-43774819D01*
X49997619Y-43774819D02*
X50092857Y-43774819D01*
X50092857Y-43774819D02*
X50235714Y-43822438D01*
X50235714Y-43822438D02*
X50283333Y-43870057D01*
X51235714Y-44774819D02*
X50664286Y-44774819D01*
X50950000Y-44774819D02*
X50950000Y-43774819D01*
X50950000Y-43774819D02*
X50854762Y-43917676D01*
X50854762Y-43917676D02*
X50759524Y-44012914D01*
X50759524Y-44012914D02*
X50664286Y-44060533D01*
X76238095Y-41849819D02*
X76238095Y-42659342D01*
X76238095Y-42659342D02*
X76285714Y-42754580D01*
X76285714Y-42754580D02*
X76333333Y-42802200D01*
X76333333Y-42802200D02*
X76428571Y-42849819D01*
X76428571Y-42849819D02*
X76619047Y-42849819D01*
X76619047Y-42849819D02*
X76714285Y-42802200D01*
X76714285Y-42802200D02*
X76761904Y-42754580D01*
X76761904Y-42754580D02*
X76809523Y-42659342D01*
X76809523Y-42659342D02*
X76809523Y-41849819D01*
X77809523Y-42849819D02*
X77238095Y-42849819D01*
X77523809Y-42849819D02*
X77523809Y-41849819D01*
X77523809Y-41849819D02*
X77428571Y-41992676D01*
X77428571Y-41992676D02*
X77333333Y-42087914D01*
X77333333Y-42087914D02*
X77238095Y-42135533D01*
%TO.C,C9*%
D11*
X68938748Y-41985000D02*
X69461252Y-41985000D01*
X68938748Y-40515000D02*
X69461252Y-40515000D01*
%TO.C,C4*%
X65561252Y-45485000D02*
X65038748Y-45485000D01*
X65561252Y-44015000D02*
X65038748Y-44015000D01*
%TO.C,J2*%
X50200000Y-27980000D02*
X48200000Y-27980000D01*
X46300000Y-27980000D02*
X44400000Y-27980000D01*
X44400000Y-27980000D02*
X44400000Y-37380000D01*
X50200000Y-37380000D02*
X48200000Y-37380000D01*
X46300000Y-37380000D02*
X44400000Y-37380000D01*
%TO.C,C3*%
X65488748Y-58485000D02*
X66011252Y-58485000D01*
X65488748Y-57015000D02*
X66011252Y-57015000D01*
%TO.C,R4*%
X58185436Y-35235000D02*
X58639564Y-35235000D01*
X58185436Y-33765000D02*
X58639564Y-33765000D01*
%TO.C,C8*%
X90188748Y-46515000D02*
X90711252Y-46515000D01*
X90188748Y-47985000D02*
X90711252Y-47985000D01*
%TO.C,R1*%
X50272936Y-51735000D02*
X50727064Y-51735000D01*
X50272936Y-50265000D02*
X50727064Y-50265000D01*
%TO.C,Y1*%
X63360000Y-47990000D02*
X58140000Y-47990000D01*
X58140000Y-47990000D02*
X58140000Y-60710000D01*
X63360000Y-60710000D02*
X63360000Y-47990000D01*
%TO.C,R3*%
X58185436Y-28765000D02*
X58639564Y-28765000D01*
X58185436Y-30235000D02*
X58639564Y-30235000D01*
%TO.C,R2*%
X72860436Y-40515000D02*
X73314564Y-40515000D01*
X72860436Y-41985000D02*
X73314564Y-41985000D01*
%TO.C,J1*%
X92120000Y-27750000D02*
X93500000Y-27750000D01*
X92120000Y-29130000D02*
X92120000Y-27750000D01*
X92120000Y-30400000D02*
X92120000Y-38130000D01*
X92120000Y-30400000D02*
X94880000Y-30400000D01*
X92120000Y-38130000D02*
X94880000Y-38130000D01*
X94880000Y-30400000D02*
X94880000Y-38130000D01*
%TO.C,FB1*%
X92537878Y-52690000D02*
X93337122Y-52690000D01*
X92537878Y-53810000D02*
X93337122Y-53810000D01*
%TO.C,C13*%
X64688748Y-30015000D02*
X65211252Y-30015000D01*
X64688748Y-31485000D02*
X65211252Y-31485000D01*
%TO.C,C12*%
X65211252Y-33985000D02*
X64688748Y-33985000D01*
X65211252Y-32515000D02*
X64688748Y-32515000D01*
%TO.C,C11*%
X90235000Y-57538748D02*
X90235000Y-58061252D01*
X88765000Y-57538748D02*
X88765000Y-58061252D01*
%TO.C,C10*%
X93265000Y-58061252D02*
X93265000Y-57538748D01*
X94735000Y-58061252D02*
X94735000Y-57538748D01*
%TO.C,C7*%
X81938748Y-63515000D02*
X82461252Y-63515000D01*
X81938748Y-64985000D02*
X82461252Y-64985000D01*
%TO.C,C6*%
X74711252Y-64985000D02*
X74188748Y-64985000D01*
X74711252Y-63515000D02*
X74188748Y-63515000D01*
%TO.C,C5*%
X67938748Y-63515000D02*
X68461252Y-63515000D01*
X67938748Y-64985000D02*
X68461252Y-64985000D01*
%TO.C,C2*%
X65488748Y-49515000D02*
X66011252Y-49515000D01*
X65488748Y-50985000D02*
X66011252Y-50985000D01*
%TO.C,U2*%
X71600000Y-26840000D02*
X75360000Y-26840000D01*
X71600000Y-33660000D02*
X75360000Y-33660000D01*
X75360000Y-26840000D02*
X75360000Y-28100000D01*
X75360000Y-33660000D02*
X75360000Y-32400000D01*
X70320000Y-26940000D02*
X70080000Y-26610000D01*
X70560000Y-26610000D01*
X70320000Y-26940000D01*
G36*
X70320000Y-26940000D02*
G01*
X70080000Y-26610000D01*
X70560000Y-26610000D01*
X70320000Y-26940000D01*
G37*
%TO.C,C1*%
X50188748Y-45265000D02*
X50711252Y-45265000D01*
X50188748Y-46735000D02*
X50711252Y-46735000D01*
%TO.C,U1*%
X69890000Y-44715000D02*
X70590000Y-44715000D01*
X69890000Y-45415000D02*
X69890000Y-44715000D01*
X69890000Y-58935000D02*
X69890000Y-58235000D01*
X70590000Y-58935000D02*
X69890000Y-58935000D01*
X83410000Y-44715000D02*
X84110000Y-44715000D01*
X84110000Y-44715000D02*
X84110000Y-45415000D01*
X84110000Y-58235000D02*
X84110000Y-58935000D01*
X84110000Y-58935000D02*
X83410000Y-58935000D01*
X69250000Y-45415000D02*
X68910000Y-44945000D01*
X69590000Y-44945000D01*
X69250000Y-45415000D01*
G36*
X69250000Y-45415000D02*
G01*
X68910000Y-44945000D01*
X69590000Y-44945000D01*
X69250000Y-45415000D01*
G37*
%TD*%
M02*
